<?xml version="1.0" encoding="UTF-8"?>
<svg width="1120px" height="300px" viewBox="0 0 1120 300" version="1.1" xmlns="http://www.w3.org/2000/svg" xmlns:xlink="http://www.w3.org/1999/xlink">
    <!-- Generator: Sketch 51 (57462) - http://www.bohemiancoding.com/sketch -->
    <title>Splash</title>
    <desc>Created with Sketch.</desc>
    <defs>
        <linearGradient x1="140.336629%" y1="146.517095%" x2="27.9639786%" y2="39.3100712%" id="linearGradient-1">
            <stop stop-color="#FF8F77" offset="0%"></stop>
            <stop stop-color="#F25189" offset="100%"></stop>
        </linearGradient>
        <linearGradient x1="-9.33000736%" y1="146.060383%" x2="61.2975106%" y2="46.0672113%" id="linearGradient-2">
            <stop stop-color="#FF8F77" offset="0%"></stop>
            <stop stop-color="#F25189" offset="100%"></stop>
        </linearGradient>
        <linearGradient x1="105.48163%" y1="123.884537%" x2="61.2975106%" y2="46.0672113%" id="linearGradient-3">
            <stop stop-color="#FF8F77" offset="0%"></stop>
            <stop stop-color="#F25189" offset="100%"></stop>
        </linearGradient>
        <linearGradient x1="-34.8739435%" y1="130.77865%" x2="61.2975106%" y2="46.0672113%" id="linearGradient-4">
            <stop stop-color="#FF8F77" offset="0%"></stop>
            <stop stop-color="#F25189" offset="100%"></stop>
        </linearGradient>
    </defs>
    <g id="Splash" stroke="none" stroke-width="1" fill="none" fill-rule="evenodd">
        <g id="splash" transform="translate(22.000000, 24.000000)">
            <g id="Logo">
                <g id="shards" transform="translate(122.115894, 126.416926) rotate(-3.000000) translate(-122.115894, -126.416926) translate(31.896596, 21.185201)">
                    <path d="M70.5732282,179.610307 L6.1137079,108.486259 C3.23601276,99.4537655 1.31542056,89.8779227 0.500487198,79.8989783 C0.345535777,78.0015819 0.232310337,76.1110761 0.159961509,74.2286007 L71.8596371,180.089284 C71.4296837,179.932725 71.0008725,179.773058 70.5732267,179.610307 Z" id="shard-1" fill="url(#linearGradient-1)"></path>
                    <path d="M168.493666,157.084603 L101.968236,209.45967 L180.380793,122.478447 C180.072314,124.065186 179.733443,125.653752 179.363759,127.243368 C176.888846,137.885337 173.193516,147.884045 168.493659,157.084609 Z" id="shard-4" fill="url(#linearGradient-2)"></path>
                    <path d="M96.1306892,208.648113 L4.55172906,64.3103687 C27.0971526,31.8713643 61.6943943,8.31338335 101.927526,0.00202764741 C96.6145053,38.0549512 93.5245642,83.5679172 93.5245642,132.470045 C93.5245642,159.085428 94.4398572,184.696885 96.1306892,208.648113 Z" id="shard-2" fill="url(#linearGradient-3)"></path>
                    <path d="M98.1175086,210.257911 C100.101464,197.762718 101.918644,184.916773 103.542186,171.797787 C109.212094,125.982268 111.778531,82.8310347 111.544564,45.830379 C140.451026,60.7020278 163.793102,84.0925425 178.63536,112.27421 L98.1175086,210.257911 Z" id="shard-3" fill="url(#linearGradient-4)"></path>
                </g>
            </g>
            <text id="tagline" font-family="Quicksand-Regular, Quicksand" font-size="36" font-weight="normal" letter-spacing="0.7454998" fill="#656565">
                <tspan x="251" y="206">Engineer, frontend developer</tspan>
            </text>
            <path d="M273.135823,81.9465633 L273.135823,105.724643 L296.510885,105.724643 C301.526249,105.724643 305.063818,104.605159 307.1237,102.366157 C309.183582,100.127155 310.213507,97.3060555 310.213507,93.9027729 C310.213507,90.4099301 309.205971,87.5440509 307.19087,85.3050491 C305.175768,83.0660474 301.839706,81.9465633 297.182582,81.9465633 L273.135823,81.9465633 Z M306.989361,155.698912 L306.989361,132.726869 C306.989361,128.427986 306.004215,125.360599 304.033893,123.524618 C302.063572,121.688636 298.391664,120.770659 293.01806,120.770659 L273.135823,120.770659 L273.135823,155.698912 L255,155.698912 L255,66.4975285 L300.272389,66.4975285 C304.392152,66.4975285 308.131229,67.1468293 311.489732,68.4454503 C314.848234,69.7440713 317.736503,71.5352458 320.154625,73.8190276 C322.572747,76.1028094 324.431091,78.8343505 325.729712,82.013733 C327.028333,85.1931155 327.677633,88.6187368 327.677633,92.2906997 C327.677633,97.1269434 326.53576,101.403373 324.251978,105.120116 C321.968196,108.836858 318.676913,111.456451 314.378029,112.978972 C318.318673,114.232813 321.117383,116.158326 322.774244,118.755568 C324.431105,121.35281 325.259524,125.248615 325.259524,130.443099 L325.259524,155.698912 L306.989361,155.698912 Z M375.90549,116.203119 C375.81593,113.784997 375.390526,111.657977 374.629265,109.821996 C373.868005,107.986014 372.860469,106.463516 371.606628,105.254455 C370.352787,104.045394 368.919847,103.149807 367.307766,102.567666 C365.695685,101.985526 364.038848,101.69446 362.337207,101.69446 C358.844364,101.69446 355.821757,102.970672 353.269295,105.523134 C350.716833,108.075596 349.261504,111.635555 348.903264,116.203119 L375.90549,116.203119 Z M348.365906,127.218952 C348.634586,132.234316 350.089916,136.21968 352.731938,139.175162 C355.37396,142.130644 358.84436,143.608363 363.143244,143.608363 C366.009166,143.608363 368.5392,142.959062 370.733422,141.660441 C372.927643,140.36182 374.338193,138.548256 374.965114,136.219694 L392.966598,136.219694 C390.906716,143.02626 387.324367,148.265445 382.219443,151.937408 C377.114519,155.609371 371.024526,157.445325 363.94928,157.445325 C341.917503,157.445325 330.90178,145.444455 330.90178,121.442357 C330.90178,116.337433 331.61825,111.725158 333.051211,107.605395 C334.484172,103.485632 336.566412,99.9480621 339.297994,96.9925798 C342.029576,94.0370975 345.365639,91.7757397 349.306282,90.2084384 C353.246925,88.6411372 357.769641,87.8574984 362.874565,87.8574984 C373.084413,87.8574984 380.808853,91.1263919 386.048117,97.664277 C391.287381,104.202162 393.906974,114.053622 393.906974,127.218952 L348.365906,127.218952 Z M442.26917,155.698912 L442.26917,146.429491 C437.791166,153.773417 430.939924,157.445325 421.715236,157.445325 C418.401514,157.445325 415.378907,156.863193 412.647325,155.698912 C409.915743,154.534631 407.564826,152.877795 405.594505,150.728353 C403.624183,148.578911 402.079295,146.026488 400.959794,143.071005 C399.840293,140.115523 399.280551,136.80185 399.280551,133.129887 L399.280551,89.603911 L416.744677,89.603911 L416.744677,130.443099 C416.744677,138.682625 420.461365,142.802327 427.89485,142.802327 C432.372854,142.802327 435.753696,141.391777 438.037478,138.570634 C440.321259,135.749492 441.463133,132.144753 441.463133,127.75631 L441.463133,89.603911 L458.79292,89.603911 L458.79292,155.698912 L442.26917,155.698912 Z M497.079658,143.205345 C501.468102,143.205345 505.050451,141.347001 507.826813,137.630258 C510.603175,133.913515 511.991336,129.099734 511.991336,123.188769 C511.991336,109.575639 506.976047,102.769175 496.945319,102.769175 C487.183271,102.769175 482.302321,109.933874 482.302321,124.263485 C482.302321,129.905769 483.712871,134.473264 486.534013,137.966107 C489.355155,141.45895 492.870335,143.205345 497.079658,143.205345 Z M465.778571,155.698912 L465.778571,65.422813 L482.974018,65.422813 L482.974018,98.2016347 C487.899822,91.3055093 494.437609,87.8574984 502.587575,87.8574984 C506.886459,87.8574984 510.715094,88.6859166 514.073597,90.3427779 C517.432099,91.9996392 520.275589,94.3505557 522.604151,97.3955981 C524.932713,100.44064 526.701497,104.045379 527.910558,108.209922 C529.119619,112.374466 529.724141,116.96435 529.724141,121.979714 C529.724141,127.532439 529.007671,132.502948 527.57471,136.891391 C526.141749,141.279835 524.171457,144.996522 521.663775,148.041564 C519.156093,151.086607 516.133486,153.415134 512.595863,155.027215 C509.05824,156.639296 505.229605,157.445325 501.109841,157.445325 C492.870315,157.445325 486.735542,154.176431 482.705339,147.638546 L482.571,155.698912 L465.778571,155.698912 Z M579.026713,116.203119 C578.937153,113.784997 578.511749,111.657977 577.750488,109.821996 C576.989227,107.986014 575.981692,106.463516 574.727851,105.254455 C573.47401,104.045394 572.04107,103.149807 570.428989,102.567666 C568.816908,101.985526 567.160071,101.69446 565.45843,101.69446 C561.965587,101.69446 558.94298,102.970672 556.390518,105.523134 C553.838056,108.075596 552.382727,111.635555 552.024487,116.203119 L579.026713,116.203119 Z M551.487129,127.218952 C551.755809,132.234316 553.211138,136.21968 555.85316,139.175162 C558.495183,142.130644 561.965583,143.608363 566.264467,143.608363 C569.130389,143.608363 571.660423,142.959062 573.854644,141.660441 C576.048866,140.36182 577.459416,138.548256 578.086337,136.219694 L596.087821,136.219694 C594.027939,143.02626 590.44559,148.265445 585.340666,151.937408 C580.235742,155.609371 574.145749,157.445325 567.070503,157.445325 C545.038726,157.445325 534.023003,145.444455 534.023003,121.442357 C534.023003,116.337433 534.739472,111.725158 536.172433,107.605395 C537.605395,103.485632 539.687635,99.9480621 542.419217,96.9925798 C545.150799,94.0370975 548.486862,91.7757397 552.427505,90.2084384 C556.368148,88.6411372 560.890864,87.8574984 565.995788,87.8574984 C576.205636,87.8574984 583.930076,91.1263919 589.16934,97.664277 C594.408604,104.202162 597.028197,114.053622 597.028197,127.218952 L551.487129,127.218952 Z M644.718695,155.698912 L644.718695,115.665761 C644.718695,110.560837 643.867888,107.112826 642.166246,105.321625 C640.464605,103.530423 637.553946,102.634836 633.434183,102.634836 C624.388616,102.634836 619.8659,107.694904 619.8659,117.815192 L619.8659,155.698912 L602.401774,155.698912 L602.401774,89.603911 L619.059864,89.603911 L619.059864,99.2763502 C621.119745,95.5148272 623.851286,92.6713377 627.254569,90.7457962 C630.657852,88.8202547 635.046229,87.8574984 640.419834,87.8574984 C643.554436,87.8574984 646.465095,88.3276817 649.151897,89.2680624 C651.838699,90.2084431 654.144836,91.6189931 656.070378,93.4997546 C657.995919,95.380516 659.518417,97.6866532 660.637918,100.418235 C661.757419,103.149817 662.317161,106.306763 662.317161,109.889165 L662.317161,155.698912 L644.718695,155.698912 Z M720.217457,81.9465633 L720.217457,105.724643 L743.592518,105.724643 C748.607882,105.724643 752.145452,104.605159 754.205333,102.366157 C756.265215,100.127155 757.29514,97.3060555 757.29514,93.9027729 C757.29514,90.4099301 756.287605,87.5440509 754.272503,85.3050491 C752.257402,83.0660474 748.921339,81.9465633 744.264215,81.9465633 L720.217457,81.9465633 Z M754.070994,155.698912 L754.070994,132.726869 C754.070994,128.427986 753.085848,125.360599 751.115526,123.524618 C749.145205,121.688636 745.473297,120.770659 740.099693,120.770659 L720.217457,120.770659 L720.217457,155.698912 L702.081633,155.698912 L702.081633,66.4975285 L747.354022,66.4975285 C751.473786,66.4975285 755.212862,67.1468293 758.571365,68.4454503 C761.929868,69.7440713 764.818137,71.5352458 767.236258,73.8190276 C769.65438,76.1028094 771.512724,78.8343505 772.811345,82.013733 C774.109966,85.1931155 774.759267,88.6187368 774.759267,92.2906997 C774.759267,97.1269434 773.617393,101.403373 771.333611,105.120116 C769.049829,108.836858 765.758546,111.456451 761.459663,112.978972 C765.400306,114.232813 768.199016,116.158326 769.855877,118.755568 C771.512739,121.35281 772.341157,125.248615 772.341157,130.443099 L772.341157,155.698912 L754.070994,155.698912 Z M822.987123,116.203119 C822.897563,113.784997 822.472159,111.657977 821.710899,109.821996 C820.949638,107.986014 819.942102,106.463516 818.688261,105.254455 C817.43442,104.045394 816.001481,103.149807 814.389399,102.567666 C812.777318,101.985526 811.120482,101.69446 809.41884,101.69446 C805.925998,101.69446 802.903391,102.970672 800.350929,105.523134 C797.798467,108.075596 796.343137,111.635555 795.984897,116.203119 L822.987123,116.203119 Z M795.447539,127.218952 C795.71622,132.234316 797.171549,136.21968 799.813571,139.175162 C802.455593,142.130644 805.925994,143.608363 810.224877,143.608363 C813.090799,143.608363 815.620833,142.959062 817.815055,141.660441 C820.009277,140.36182 821.419827,138.548256 822.046747,136.219694 L840.048231,136.219694 C837.98835,143.02626 834.406001,148.265445 829.301077,151.937408 C824.196153,155.609371 818.106159,157.445325 811.030914,157.445325 C788.999136,157.445325 777.983413,145.444455 777.983413,121.442357 C777.983413,116.337433 778.699883,111.725158 780.132844,107.605395 C781.565805,103.485632 783.648046,99.9480621 786.379628,96.9925798 C789.11121,94.0370975 792.447272,91.7757397 796.387915,90.2084384 C800.328559,88.6411372 804.851274,87.8574984 809.956198,87.8574984 C820.166046,87.8574984 827.890486,91.1263919 833.12975,97.664277 C838.369014,104.202162 840.988607,114.053622 840.988607,127.218952 L795.447539,127.218952 Z M888.410427,146.966849 C887.156586,149.922331 884.895228,152.228468 881.626286,153.88533 C878.357343,155.542191 874.663046,156.370609 870.543283,156.370609 C867.05044,156.370609 863.826326,155.810867 860.870843,154.691366 C857.915361,153.571865 855.362937,151.959808 853.213496,149.855147 C851.064054,147.750485 849.384828,145.242841 848.175767,142.332138 C846.966706,139.421436 846.362185,136.130153 846.362185,132.45819 L846.362185,89.603911 L863.826311,89.603911 L863.826311,129.905741 C863.826311,138.145267 867.542998,142.264969 874.976484,142.264969 C879.006687,142.264969 882.253191,141.100705 884.716093,138.772144 C887.178995,136.443582 888.410427,133.488144 888.410427,129.905741 L888.410427,89.603911 L905.874553,89.603911 L905.874553,157.445325 C905.874553,162.102448 905.090915,166.266929 903.523613,169.938892 C901.956312,173.610855 899.806903,176.700631 897.075321,179.208313 C894.343738,181.715995 891.119624,183.641507 887.402881,184.984909 C883.686138,186.32831 879.723165,187 875.513842,187 C865.751794,187 858.452758,184.537135 853.616514,179.611331 C848.78027,174.685527 846.362185,167.923843 846.362185,159.326077 L862.617256,159.326077 C862.617256,163.26672 863.75913,166.356496 866.042911,168.595498 C868.326693,170.834499 871.752315,171.953983 876.319878,171.953983 C877.931959,171.953983 879.454458,171.618138 880.887419,170.946438 C882.32038,170.274737 883.596592,169.334371 884.716093,168.12531 C885.835594,166.916249 886.731181,165.41614 887.402881,163.624939 C888.074582,161.833737 888.410427,159.863445 888.410427,157.714004 L888.410427,146.966849 Z M956.38618,116.203119 C956.29662,113.784997 955.871216,111.657977 955.109956,109.821996 C954.348695,107.986014 953.341159,106.463516 952.087318,105.254455 C950.833477,104.045394 949.400538,103.149807 947.788457,102.567666 C946.176375,101.985526 944.519539,101.69446 942.817898,101.69446 C939.325055,101.69446 936.302448,102.970672 933.749986,105.523134 C931.197524,108.075596 929.742194,111.635555 929.383954,116.203119 L956.38618,116.203119 Z M928.846596,127.218952 C929.115277,132.234316 930.570606,136.21968 933.212628,139.175162 C935.85465,142.130644 939.325051,143.608363 943.623934,143.608363 C946.489856,143.608363 949.01989,142.959062 951.214112,141.660441 C953.408334,140.36182 954.818884,138.548256 955.445804,136.219694 L973.447288,136.219694 C971.387407,143.02626 967.805058,148.265445 962.700134,151.937408 C957.59521,155.609371 951.505216,157.445325 944.429971,157.445325 C922.398194,157.445325 911.38247,145.444455 911.38247,121.442357 C911.38247,116.337433 912.09894,111.725158 913.531901,107.605395 C914.964862,103.485632 917.047103,99.9480621 919.778685,96.9925798 C922.510267,94.0370975 925.846329,91.7757397 929.786973,90.2084384 C933.727616,88.6411372 938.250331,87.8574984 943.355255,87.8574984 C953.565103,87.8574984 961.289543,91.1263919 966.528807,97.664277 C971.768072,104.202162 974.387664,114.053622 974.387664,127.218952 L928.846596,127.218952 Z M1019.52571,109.620487 C1019.07791,106.575444 1017.93604,104.358866 1016.10006,102.970685 C1014.26408,101.582504 1011.46537,100.888423 1007.70384,100.888423 C1004.12144,100.888423 1001.41229,101.313827 999.576308,102.164648 C997.740327,103.015469 996.82235,104.470798 996.82235,106.53068 C996.82235,108.321881 997.740327,109.754821 999.576308,110.829541 C1001.41229,111.904262 1004.07666,112.934188 1007.5695,113.919348 C1013.30135,115.53143 1018.13752,116.8972 1022.07816,118.016701 C1026.01881,119.136202 1029.17575,120.457193 1031.54909,121.979714 C1033.92243,123.502236 1035.62405,125.405359 1036.65399,127.68914 C1037.68393,129.972922 1038.1989,133.040308 1038.1989,136.891391 C1038.1989,142.802356 1035.73603,147.705696 1030.81023,151.601559 C1025.88442,155.497422 1018.58539,157.445325 1008.9129,157.445325 C1004.16621,157.445325 999.867396,156.907972 996.016313,155.833252 C992.16523,154.758531 988.873947,153.213643 986.142365,151.198541 C983.410783,149.18344 981.306152,146.765354 979.828411,143.944212 C978.35067,141.123069 977.567031,137.966124 977.477471,134.473282 L995.478955,134.473282 C995.478955,137.607884 996.710388,140.02597 999.17329,141.727611 C1001.63619,143.429252 1004.83792,144.28006 1008.77856,144.28006 C1012.09228,144.28006 1014.93577,143.765098 1017.30911,142.735157 C1019.68246,141.705216 1020.86911,140.115549 1020.86911,137.966107 C1020.86911,135.547985 1019.99591,133.80159 1018.24949,132.726869 C1016.50307,131.652148 1013.8387,130.711782 1010.25629,129.905741 C1003.80797,128.47278 998.613562,126.972671 994.672919,125.40537 C990.732276,123.838069 987.664889,122.114063 985.470668,120.233302 C983.276446,118.35254 981.798727,116.29269 981.037466,114.053688 C980.276206,111.814686 979.895581,109.307042 979.895581,106.53068 C979.895581,104.022998 980.410544,101.649691 981.440485,99.4106896 C982.470425,97.1716879 984.104872,95.2013959 986.343874,93.4997546 C988.582876,91.7981132 991.493534,90.4323426 995.075937,89.4024018 C998.65834,88.372461 1003.04672,87.8574984 1008.2412,87.8574984 C1017.73457,87.8574984 1024.67537,89.783011 1029.06381,93.634094 C1033.45226,97.485177 1035.87034,102.813921 1036.31814,109.620487 L1019.52571,109.620487 Z" id="me" fill="#656565"></path>
        </g>
    </g>
</svg>