<?xml version="1.0" encoding="UTF-8"?>
<svg width="1120px" height="300px" viewBox="0 0 1120 300" version="1.1" xmlns="http://www.w3.org/2000/svg" xmlns:xlink="http://www.w3.org/1999/xlink">
    <!-- Generator: Sketch 50.2 (55047) - http://www.bohemiancoding.com/sketch -->
    <title>Splash Dark</title>
    <desc>Created with Sketch.</desc>
    <defs>
        <linearGradient x1="140.336629%" y1="146.517095%" x2="27.9639786%" y2="39.3100712%" id="linearGradient-1">
            <stop stop-color="#FF8F77" offset="0%"></stop>
            <stop stop-color="#F25189" offset="100%"></stop>
        </linearGradient>
        <linearGradient x1="-9.33000736%" y1="146.060383%" x2="61.2975106%" y2="46.0672113%" id="linearGradient-2">
            <stop stop-color="#FF8F77" offset="0%"></stop>
            <stop stop-color="#F25189" offset="100%"></stop>
        </linearGradient>
        <linearGradient x1="105.48163%" y1="123.884537%" x2="61.2975106%" y2="46.0672113%" id="linearGradient-3">
            <stop stop-color="#FF8F77" offset="0%"></stop>
            <stop stop-color="#F25189" offset="100%"></stop>
        </linearGradient>
        <linearGradient x1="-34.8739435%" y1="130.77865%" x2="61.2975106%" y2="46.0672113%" id="linearGradient-4">
            <stop stop-color="#FF8F77" offset="0%"></stop>
            <stop stop-color="#F25189" offset="100%"></stop>
        </linearGradient>
    </defs>
    <g id="Splash-Dark" stroke="none" stroke-width="1" fill="none" fill-rule="evenodd">
        <g id="splash" transform="translate(6.000000, 18.000000)">
            <g id="Logo-Red">
                <g id="shards-red" transform="translate(121.907895, 127.802206) rotate(-3.000000) translate(-121.907895, -127.802206) translate(31.688596, 21.951471)">
                    <path d="M70.6320176,180.691839 L6.09180501,109.06202 C3.22214448,99.9924089 1.30583317,90.3790013 0.490536647,80.3620256 C0.335194834,78.4534498 0.221580715,76.5518137 0.148845149,74.6582636 L71.8707534,181.155609 C71.4567761,181.003908 71.0438568,180.849312 70.6320164,180.691838 Z" id="shard-1" fill="url(#linearGradient-1)"></path>
                    <path d="M168.493267,158.008946 L101.965095,210.694274 L180.385717,123.194623 C180.077075,124.790725 179.73804,126.388667 179.368192,127.987669 C176.891875,138.6938 173.194903,148.752852 168.49326,158.008951 Z" id="shard-4" fill="url(#linearGradient-2)"></path>
                    <path d="M96.1306892,209.875455 L4.55172906,64.688665 C27.0971526,32.0588429 61.6943943,8.36228561 101.927526,0.00203957475 C96.6145053,38.2788039 93.5245642,84.0594932 93.5245642,133.24928 C93.5245642,160.021225 94.4398572,185.783337 96.1306892,209.875455 Z" id="shard-2" fill="url(#linearGradient-3)"></path>
                    <path d="M98.1175086,211.494723 C100.101464,198.926028 101.918644,186.004518 103.542186,172.808362 C109.212094,126.72334 111.778531,83.3182761 111.544564,46.0999695 C140.451026,61.0590985 163.793102,84.5872045 178.63536,112.934647 L98.1175086,211.494723 Z" id="shard-3" fill="url(#linearGradient-4)"></path>
                </g>
            </g>
            <path d="M263.188,207.36 C261.459991,207.36 259.930007,207.072003 258.598,206.496 C257.265993,205.919997 255.976006,205.020006 254.728,203.796 C254.439999,203.555999 254.296,203.268002 254.296,202.932 C254.296,202.643999 254.409999,202.380001 254.638,202.14 C254.866001,201.899999 255.123999,201.78 255.412,201.78 C255.700001,201.78 255.963999,201.899999 256.204,202.14 C258.076009,204.20401 260.415986,205.236 263.224,205.236 C264.952009,205.236 266.385994,204.828004 267.526,204.012 C268.666006,203.195996 269.236,202.128007 269.236,200.808 C269.236,199.775995 268.954003,198.918003 268.39,198.234 C267.825997,197.549997 267.088005,196.992002 266.176,196.56 C265.263995,196.127998 264.100007,195.684002 262.684,195.228 C261.147992,194.771998 259.858005,194.268003 258.814,193.716 C257.769995,193.163997 256.924003,192.426005 256.276,191.502 C255.627997,190.577995 255.304,189.408007 255.304,187.992 C255.304,186.719994 255.645997,185.592005 256.33,184.608 C257.014003,183.623995 257.973994,182.850003 259.21,182.286 C260.446006,181.721997 261.867992,181.44 263.476,181.44 C264.940007,181.44 266.313994,181.685998 267.598,182.178 C268.882006,182.670002 269.907996,183.371995 270.676,184.284 C271.036002,184.692002 271.216,185.039999 271.216,185.328 C271.216,185.592001 271.096001,185.837999 270.856,186.066 C270.615999,186.294001 270.352001,186.408 270.064,186.408 C269.823999,186.408 269.620001,186.324001 269.452,186.156 C268.803997,185.387996 267.940005,184.764002 266.86,184.284 C265.779995,183.803998 264.652006,183.564 263.476,183.564 C261.723991,183.564 260.296006,183.953996 259.192,184.734 C258.087994,185.514004 257.536,186.575993 257.536,187.92 C257.536,189.312007 258.063995,190.379996 259.12,191.124 C260.176005,191.868004 261.68799,192.551997 263.656,193.176 C265.360009,193.680003 266.751995,194.195997 267.832,194.724 C268.912005,195.252003 269.793997,196.001995 270.478,196.974 C271.162003,197.946005 271.504,199.223992 271.504,200.808 C271.504,202.032006 271.150004,203.141995 270.442,204.138 C269.733996,205.134005 268.750006,205.919997 267.49,206.496 C266.229994,207.072003 264.796008,207.36 263.188,207.36 Z M293.068,197.784 C293.068,199.584009 292.672004,201.215993 291.88,202.68 C291.087996,204.144007 289.996007,205.289996 288.604,206.118 C287.211993,206.946004 285.664009,207.36 283.96,207.36 C282.255991,207.36 280.708007,206.946004 279.316,206.118 C277.923993,205.289996 276.832004,204.144007 276.04,202.68 C275.247996,201.215993 274.852,199.584009 274.852,197.784 C274.852,195.983991 275.247996,194.352007 276.04,192.888 C276.832004,191.423993 277.923993,190.272004 279.316,189.432 C280.708007,188.591996 282.255991,188.172 283.96,188.172 C285.664009,188.172 287.211993,188.591996 288.604,189.432 C289.996007,190.272004 291.087996,191.423993 291.88,192.888 C292.672004,194.352007 293.068,195.983991 293.068,197.784 Z M290.908,197.784 C290.908,196.343993 290.608003,195.048006 290.008,193.896 C289.407997,192.743994 288.574005,191.838003 287.506,191.178 C286.437995,190.517997 285.256006,190.188 283.96,190.188 C282.663994,190.188 281.488005,190.517997 280.432,191.178 C279.375995,191.838003 278.542003,192.743994 277.93,193.896 C277.317997,195.048006 277.012,196.343993 277.012,197.784 C277.012,199.200007 277.317997,200.483994 277.93,201.636 C278.542003,202.788006 279.375995,203.693997 280.432,204.354 C281.488005,205.014003 282.663994,205.344 283.96,205.344 C285.256006,205.344 286.437995,205.020003 287.506,204.372 C288.574005,203.723997 289.407997,202.824006 290.008,201.672 C290.608003,200.519994 290.908,199.224007 290.908,197.784 Z M303.904,182.412 C303.135996,182.412 302.542002,182.663997 302.122,183.168 C301.701998,183.672003 301.492,184.367996 301.492,185.256 L301.492,188.964 L305.524,188.964 C305.788001,188.964 306.021999,189.059999 306.226,189.252 C306.430001,189.444001 306.532,189.683999 306.532,189.972 C306.532,190.260001 306.430001,190.499999 306.226,190.692 C306.021999,190.884001 305.788001,190.98 305.524,190.98 L301.492,190.98 L301.492,205.92 C301.492,206.232002 301.390001,206.489999 301.186,206.694 C300.981999,206.898001 300.724002,207 300.412,207 C300.099998,207 299.842001,206.898001 299.638,206.694 C299.433999,206.489999 299.332,206.232002 299.332,205.92 L299.332,190.98 L296.704,190.98 C296.415999,190.98 296.176001,190.878001 295.984,190.674 C295.791999,190.469999 295.696,190.236001 295.696,189.972 C295.696,189.659998 295.791999,189.414001 295.984,189.234 C296.176001,189.053999 296.415999,188.964 296.704,188.964 L299.332,188.964 L299.332,185.256 C299.332,183.743992 299.769996,182.574004 300.646,181.746 C301.522004,180.917996 302.691993,180.504 304.156,180.504 C304.828003,180.504 305.451997,180.605999 306.028,180.81 C306.604003,181.014001 306.892,181.343998 306.892,181.8 C306.892,182.088001 306.796001,182.327999 306.604,182.52 C306.411999,182.712001 306.196001,182.808 305.956,182.808 C305.739999,182.808 305.476002,182.748001 305.164,182.628 C304.635997,182.483999 304.216002,182.412 303.904,182.412 Z M313.912,190.692 L313.912,202.752 C313.912,203.664005 314.079998,204.281998 314.416,204.606 C314.752002,204.930002 315.195997,205.092 315.748,205.092 C315.892001,205.092 316.071999,205.062 316.288,205.002 C316.504001,204.942 316.671999,204.912 316.792,204.912 C317.008001,204.912 317.193999,205.001999 317.35,205.182 C317.506001,205.362001 317.584,205.571999 317.584,205.812 C317.584,206.148002 317.392002,206.429999 317.008,206.658 C316.623998,206.886001 316.168003,207 315.64,207 C314.991997,207 314.416003,206.940001 313.912,206.82 C313.407997,206.699999 312.922002,206.340003 312.454,205.74 C311.985998,205.139997 311.752,204.180007 311.752,202.86 L311.752,190.692 L309.124,190.692 C308.835999,190.692 308.590001,190.596001 308.386,190.404 C308.181999,190.211999 308.08,189.972001 308.08,189.684 C308.08,189.395999 308.181999,189.156001 308.386,188.964 C308.590001,188.771999 308.835999,188.676 309.124,188.676 L311.752,188.676 L311.752,184.68 C311.752,184.367998 311.853999,184.110001 312.058,183.906 C312.262001,183.701999 312.519998,183.6 312.832,183.6 C313.144002,183.6 313.401999,183.701999 313.606,183.906 C313.810001,184.110001 313.912,184.367998 313.912,184.68 L313.912,188.676 L317.512,188.676 C317.776001,188.676 318.009999,188.783999 318.214,189 C318.418001,189.216001 318.52,189.455999 318.52,189.72 C318.52,190.008001 318.424001,190.241999 318.232,190.422 C318.039999,190.602001 317.800001,190.692 317.512,190.692 L313.912,190.692 Z M345.808,188.208 C346.120002,188.208 346.377999,188.303999 346.582,188.496 C346.786001,188.688001 346.888,188.951998 346.888,189.288 C346.888,189.312 346.852,189.467999 346.78,189.756 L341.236,206.316 C341.115999,206.532001 340.960001,206.705999 340.768,206.838 C340.575999,206.970001 340.372001,207.024 340.156,207 C339.939999,207 339.748001,206.940001 339.58,206.82 C339.411999,206.699999 339.28,206.532001 339.184,206.316 L334.468,195.228 L330.256,206.316 C330.16,206.508001 330.022001,206.669999 329.842,206.802 C329.661999,206.934001 329.476001,207 329.284,207 C329.043999,207.024 328.822001,206.970001 328.618,206.838 C328.413999,206.705999 328.276,206.532001 328.204,206.316 L322.516,189.756 C322.444,189.611999 322.408,189.456001 322.408,189.288 C322.408,188.975998 322.515999,188.718001 322.732,188.514 C322.948001,188.309999 323.211998,188.208 323.524,188.208 C323.740001,188.208 323.937999,188.273999 324.118,188.406 C324.298001,188.538001 324.424,188.711999 324.496,188.928 L329.284,203.292 L333.568,192.528 C333.736001,192.071998 334.071997,191.844 334.576,191.844 C335.056002,191.844 335.391999,192.071998 335.584,192.528 L340.084,203.22 L344.8,188.928 C344.944001,188.447998 345.279997,188.208 345.808,188.208 Z M366.112,188.604 C366.424002,188.604 366.681999,188.711999 366.886,188.928 C367.090001,189.144001 367.192,189.407998 367.192,189.72 L367.192,205.92 C367.192,206.232002 367.090001,206.489999 366.886,206.694 C366.681999,206.898001 366.424002,207 366.112,207 C365.799998,207 365.542001,206.898001 365.338,206.694 C365.133999,206.489999 365.032,206.232002 365.032,205.92 L365.032,203.508 C364.431997,204.588005 363.532006,205.499996 362.332,206.244 C361.131994,206.988004 359.824007,207.36 358.408,207.36 C356.799992,207.36 355.354006,206.940004 354.07,206.1 C352.785994,205.259996 351.778004,204.108007 351.046,202.644 C350.313996,201.179993 349.948,199.536009 349.948,197.712 C349.948,195.887991 350.319996,194.250007 351.064,192.798 C351.808004,191.345993 352.821994,190.212004 354.106,189.396 C355.390006,188.579996 356.811992,188.172 358.372,188.172 C359.812007,188.172 361.131994,188.519997 362.332,189.216 C363.532006,189.912003 364.431997,190.823994 365.032,191.952 L365.032,189.72 C365.032,189.407998 365.133999,189.144001 365.338,188.928 C365.542001,188.711999 365.799998,188.604 366.112,188.604 Z M358.624,205.344 C359.872006,205.344 360.993995,205.014003 361.99,204.354 C362.986005,203.693997 363.765997,202.782006 364.33,201.618 C364.894003,200.453994 365.176,199.152007 365.176,197.712 C365.176,196.319993 364.894003,195.048006 364.33,193.896 C363.765997,192.743994 362.986005,191.838003 361.99,191.178 C360.993995,190.517997 359.872006,190.188 358.624,190.188 C357.375994,190.188 356.254005,190.511997 355.258,191.16 C354.261995,191.808003 353.482003,192.701994 352.918,193.842 C352.353997,194.982006 352.072,196.271993 352.072,197.712 C352.072,199.152007 352.347997,200.453994 352.9,201.618 C353.452003,202.782006 354.225995,203.693997 355.222,204.354 C356.218005,205.014003 357.351994,205.344 358.624,205.344 Z M381.448,188.172 C381.928002,188.172 382.359998,188.267999 382.744,188.46 C383.128002,188.652001 383.32,188.939998 383.32,189.324 C383.32,189.660002 383.224001,189.929999 383.032,190.134 C382.839999,190.338001 382.612001,190.44 382.348,190.44 C382.227999,190.44 381.994002,190.380001 381.646,190.26 C381.297998,190.139999 380.968002,190.08 380.656,190.08 C379.767996,190.08 378.886004,190.421997 378.01,191.106 C377.133996,191.790003 376.414003,192.671995 375.85,193.752 C375.285997,194.832005 375.004,195.923994 375.004,197.028 L375.004,205.92 C375.004,206.232002 374.902001,206.489999 374.698,206.694 C374.493999,206.898001 374.236002,207 373.924,207 C373.611998,207 373.354001,206.898001 373.15,206.694 C372.945999,206.489999 372.844,206.232002 372.844,205.92 L372.844,189.792 C372.844,189.479998 372.945999,189.222001 373.15,189.018 C373.354001,188.813999 373.611998,188.712 373.924,188.712 C374.236002,188.712 374.493999,188.813999 374.698,189.018 C374.902001,189.222001 375.004,189.479998 375.004,189.792 L375.004,192.96 C375.556003,191.591993 376.389994,190.458004 377.506,189.558 C378.622006,188.657995 379.935992,188.196 381.448,188.172 Z M401.464,196.74 C401.464,197.028001 401.356001,197.273999 401.14,197.478 C400.923999,197.682001 400.672001,197.784 400.384,197.784 L386.776,197.784 C386.776,199.224007 387.069997,200.513994 387.658,201.654 C388.246003,202.794006 389.085995,203.693997 390.178,204.354 C391.270005,205.014003 392.559993,205.344 394.048,205.344 C395.200006,205.344 396.231995,205.104002 397.144,204.624 C398.056005,204.143998 398.787997,203.532004 399.34,202.788 C399.604001,202.571999 399.855999,202.464 400.096,202.464 C400.336001,202.464 400.551999,202.559999 400.744,202.752 C400.936001,202.944001 401.032,203.159999 401.032,203.4 C401.032,203.664001 400.912001,203.915999 400.672,204.156 C399.903996,205.092005 398.938006,205.859997 397.774,206.46 C396.609994,207.060003 395.380006,207.36 394.084,207.36 C392.235991,207.36 390.604007,206.964004 389.188,206.172 C387.771993,205.379996 386.668004,204.270007 385.876,202.842 C385.083996,201.413993 384.688,199.764009 384.688,197.892 C384.688,195.92399 385.077996,194.202007 385.858,192.726 C386.638004,191.249993 387.675994,190.122004 388.972,189.342 C390.268006,188.561996 391.647993,188.172 393.112,188.172 C394.552007,188.172 395.901994,188.507997 397.162,189.18 C398.422006,189.852003 399.447996,190.835994 400.24,192.132 C401.032004,193.428006 401.44,194.963991 401.464,196.74 Z M393.112,190.26 C391.719993,190.26 390.430006,190.739995 389.242,191.7 C388.053994,192.660005 387.292002,194.039991 386.956,195.84 L399.232,195.84 L399.232,195.552 C399.111999,194.471995 398.752003,193.530004 398.152,192.726 C397.551997,191.921996 396.802005,191.310002 395.902,190.89 C395.001996,190.469998 394.072005,190.26 393.112,190.26 Z M431.308,196.74 C431.308,197.028001 431.200001,197.273999 430.984,197.478 C430.767999,197.682001 430.516001,197.784 430.228,197.784 L416.62,197.784 C416.62,199.224007 416.913997,200.513994 417.502,201.654 C418.090003,202.794006 418.929995,203.693997 420.022,204.354 C421.114005,205.014003 422.403993,205.344 423.892,205.344 C425.044006,205.344 426.075995,205.104002 426.988,204.624 C427.900005,204.143998 428.631997,203.532004 429.184,202.788 C429.448001,202.571999 429.699999,202.464 429.94,202.464 C430.180001,202.464 430.395999,202.559999 430.588,202.752 C430.780001,202.944001 430.876,203.159999 430.876,203.4 C430.876,203.664001 430.756001,203.915999 430.516,204.156 C429.747996,205.092005 428.782006,205.859997 427.618,206.46 C426.453994,207.060003 425.224006,207.36 423.928,207.36 C422.079991,207.36 420.448007,206.964004 419.032,206.172 C417.615993,205.379996 416.512004,204.270007 415.72,202.842 C414.927996,201.413993 414.532,199.764009 414.532,197.892 C414.532,195.92399 414.921996,194.202007 415.702,192.726 C416.482004,191.249993 417.519994,190.122004 418.816,189.342 C420.112006,188.561996 421.491993,188.172 422.956,188.172 C424.396007,188.172 425.745994,188.507997 427.006,189.18 C428.266006,189.852003 429.291996,190.835994 430.084,192.132 C430.876004,193.428006 431.284,194.963991 431.308,196.74 Z M422.956,190.26 C421.563993,190.26 420.274006,190.739995 419.086,191.7 C417.897994,192.660005 417.136002,194.039991 416.8,195.84 L429.076,195.84 L429.076,195.552 C428.955999,194.471995 428.596003,193.530004 427.996,192.726 C427.395997,191.921996 426.646005,191.310002 425.746,190.89 C424.845996,190.469998 423.916005,190.26 422.956,190.26 Z M444.448,188.172 C446.680011,188.172 448.317995,188.825993 449.362,190.134 C450.406005,191.442007 450.928,193.175989 450.928,195.336 L450.928,205.92 C450.928,206.232002 450.820001,206.489999 450.604,206.694 C450.387999,206.898001 450.136001,207 449.848,207 C449.535998,207 449.278001,206.898001 449.074,206.694 C448.869999,206.489999 448.768,206.232002 448.768,205.92 L448.768,195.444 C448.768,193.883992 448.378004,192.618005 447.598,191.646 C446.817996,190.673995 445.612008,190.188 443.98,190.188 C442.947995,190.188 441.970005,190.427998 441.046,190.908 C440.121995,191.388002 439.372003,192.029996 438.796,192.834 C438.219997,193.638004 437.932,194.507995 437.932,195.444 L437.932,205.92 C437.932,206.232002 437.830001,206.489999 437.626,206.694 C437.421999,206.898001 437.164002,207 436.852,207 C436.539998,207 436.282001,206.898001 436.078,206.694 C435.873999,206.489999 435.772,206.232002 435.772,205.92 L435.772,189.792 C435.772,189.479998 435.873999,189.222001 436.078,189.018 C436.282001,188.813999 436.539998,188.712 436.852,188.712 C437.164002,188.712 437.421999,188.813999 437.626,189.018 C437.830001,189.222001 437.932,189.479998 437.932,189.792 L437.932,191.772 C438.580003,190.739995 439.509994,189.882003 440.722,189.198 C441.934006,188.513997 443.175994,188.172 444.448,188.172 Z M472.132,188.604 C472.444002,188.604 472.701999,188.705999 472.906,188.91 C473.110001,189.114001 473.212,189.383998 473.212,189.72 L473.212,205.308 C473.212,207.180009 472.822004,208.781993 472.042,210.114 C471.261996,211.446007 470.194007,212.459997 468.838,213.156 C467.481993,213.852003 465.928009,214.2 464.176,214.2 C463.335996,214.2 462.454005,214.092001 461.53,213.876 C460.605995,213.659999 459.814003,213.384002 459.154,213.048 C458.493997,212.711998 458.116,212.364002 458.02,212.004 C457.851999,211.835999 457.768,211.644001 457.768,211.428 C457.768,211.187999 457.875999,210.996001 458.092,210.852 C458.188,210.78 458.307999,210.744 458.452,210.744 C458.596001,210.744 458.871998,210.827999 459.28,210.996 L460.036,211.32 C461.524007,211.896003 462.915994,212.184 464.212,212.184 C466.348011,212.184 468.021994,211.578006 469.234,210.366 C470.446006,209.153994 471.052,207.51601 471.052,205.452 L471.052,203.22 C470.451997,204.516006 469.504006,205.529996 468.208,206.262 C466.911994,206.994004 465.556007,207.36 464.14,207.36 C462.483992,207.36 460.990007,206.946004 459.658,206.118 C458.325993,205.289996 457.276004,204.144007 456.508,202.68 C455.739996,201.215993 455.356,199.572009 455.356,197.748 C455.356,195.947991 455.739996,194.316007 456.508,192.852 C457.276004,191.387993 458.325993,190.242004 459.658,189.414 C460.990007,188.585996 462.471992,188.172 464.104,188.172 C465.616008,188.172 467.001994,188.549996 468.262,189.306 C469.522006,190.062004 470.451997,190.967995 471.052,192.024 L471.052,189.72 C471.052,189.407998 471.153999,189.144001 471.358,188.928 C471.562001,188.711999 471.819998,188.604 472.132,188.604 Z M464.32,205.344 C465.640007,205.344 466.821995,205.026003 467.866,204.39 C468.910005,203.753997 469.725997,202.854006 470.314,201.69 C470.902003,200.525994 471.196,199.212007 471.196,197.748 C471.196,196.283993 470.902003,194.976006 470.314,193.824 C469.725997,192.671994 468.910005,191.778003 467.866,191.142 C466.821995,190.505997 465.640007,190.188 464.32,190.188 C463.023994,190.188 461.854005,190.517997 460.81,191.178 C459.765995,191.838003 458.950003,192.743994 458.362,193.896 C457.773997,195.048006 457.48,196.331993 457.48,197.748 C457.48,199.188007 457.773997,200.483994 458.362,201.636 C458.950003,202.788006 459.765995,203.693997 460.81,204.354 C461.854005,205.014003 463.023994,205.344 464.32,205.344 Z M480.988,205.92 C480.988,206.232002 480.886001,206.489999 480.682,206.694 C480.477999,206.898001 480.220002,207 479.908,207 C479.595998,207 479.338001,206.898001 479.134,206.694 C478.929999,206.489999 478.828,206.232002 478.828,205.92 L478.828,189.36 C478.828,189.047998 478.929999,188.790001 479.134,188.586 C479.338001,188.381999 479.595998,188.28 479.908,188.28 C480.220002,188.28 480.477999,188.381999 480.682,188.586 C480.886001,188.790001 480.988,189.047998 480.988,189.36 L480.988,205.92 Z M479.908,185.868 C479.427998,185.868 479.056001,185.754001 478.792,185.526 C478.527999,185.297999 478.396,184.968002 478.396,184.536 L478.396,184.176 C478.396,183.743998 478.533999,183.414001 478.81,183.186 C479.086001,182.957999 479.463998,182.844 479.944,182.844 C480.904005,182.844 481.384,183.287996 481.384,184.176 L481.384,184.536 C481.384,184.968002 481.258001,185.297999 481.006,185.526 C480.753999,185.754001 480.388002,185.868 479.908,185.868 Z M495.28,188.172 C497.512011,188.172 499.149995,188.825993 500.194,190.134 C501.238005,191.442007 501.76,193.175989 501.76,195.336 L501.76,205.92 C501.76,206.232002 501.652001,206.489999 501.436,206.694 C501.219999,206.898001 500.968001,207 500.68,207 C500.367998,207 500.110001,206.898001 499.906,206.694 C499.701999,206.489999 499.6,206.232002 499.6,205.92 L499.6,195.444 C499.6,193.883992 499.210004,192.618005 498.43,191.646 C497.649996,190.673995 496.444008,190.188 494.812,190.188 C493.779995,190.188 492.802005,190.427998 491.878,190.908 C490.953995,191.388002 490.204003,192.029996 489.628,192.834 C489.051997,193.638004 488.764,194.507995 488.764,195.444 L488.764,205.92 C488.764,206.232002 488.662001,206.489999 488.458,206.694 C488.253999,206.898001 487.996002,207 487.684,207 C487.371998,207 487.114001,206.898001 486.91,206.694 C486.705999,206.489999 486.604,206.232002 486.604,205.92 L486.604,189.792 C486.604,189.479998 486.705999,189.222001 486.91,189.018 C487.114001,188.813999 487.371998,188.712 487.684,188.712 C487.996002,188.712 488.253999,188.813999 488.458,189.018 C488.662001,189.222001 488.764,189.479998 488.764,189.792 L488.764,191.772 C489.412003,190.739995 490.341994,189.882003 491.554,189.198 C492.766006,188.513997 494.007994,188.172 495.28,188.172 Z M522.964,196.74 C522.964,197.028001 522.856001,197.273999 522.64,197.478 C522.423999,197.682001 522.172001,197.784 521.884,197.784 L508.276,197.784 C508.276,199.224007 508.569997,200.513994 509.158,201.654 C509.746003,202.794006 510.585995,203.693997 511.678,204.354 C512.770005,205.014003 514.059993,205.344 515.548,205.344 C516.700006,205.344 517.731995,205.104002 518.644,204.624 C519.556005,204.143998 520.287997,203.532004 520.84,202.788 C521.104001,202.571999 521.355999,202.464 521.596,202.464 C521.836001,202.464 522.051999,202.559999 522.244,202.752 C522.436001,202.944001 522.532,203.159999 522.532,203.4 C522.532,203.664001 522.412001,203.915999 522.172,204.156 C521.403996,205.092005 520.438006,205.859997 519.274,206.46 C518.109994,207.060003 516.880006,207.36 515.584,207.36 C513.735991,207.36 512.104007,206.964004 510.688,206.172 C509.271993,205.379996 508.168004,204.270007 507.376,202.842 C506.583996,201.413993 506.188,199.764009 506.188,197.892 C506.188,195.92399 506.577996,194.202007 507.358,192.726 C508.138004,191.249993 509.175994,190.122004 510.472,189.342 C511.768006,188.561996 513.147993,188.172 514.612,188.172 C516.052007,188.172 517.401994,188.507997 518.662,189.18 C519.922006,189.852003 520.947996,190.835994 521.74,192.132 C522.532004,193.428006 522.94,194.963991 522.964,196.74 Z M514.612,190.26 C513.219993,190.26 511.930006,190.739995 510.742,191.7 C509.553994,192.660005 508.792002,194.039991 508.456,195.84 L520.732,195.84 L520.732,195.552 C520.611999,194.471995 520.252003,193.530004 519.652,192.726 C519.051997,191.921996 518.302005,191.310002 517.402,190.89 C516.501996,190.469998 515.572005,190.26 514.612,190.26 Z M542.98,196.74 C542.98,197.028001 542.872001,197.273999 542.656,197.478 C542.439999,197.682001 542.188001,197.784 541.9,197.784 L528.292,197.784 C528.292,199.224007 528.585997,200.513994 529.174,201.654 C529.762003,202.794006 530.601995,203.693997 531.694,204.354 C532.786005,205.014003 534.075993,205.344 535.564,205.344 C536.716006,205.344 537.747995,205.104002 538.66,204.624 C539.572005,204.143998 540.303997,203.532004 540.856,202.788 C541.120001,202.571999 541.371999,202.464 541.612,202.464 C541.852001,202.464 542.067999,202.559999 542.26,202.752 C542.452001,202.944001 542.548,203.159999 542.548,203.4 C542.548,203.664001 542.428001,203.915999 542.188,204.156 C541.419996,205.092005 540.454006,205.859997 539.29,206.46 C538.125994,207.060003 536.896006,207.36 535.6,207.36 C533.751991,207.36 532.120007,206.964004 530.704,206.172 C529.287993,205.379996 528.184004,204.270007 527.392,202.842 C526.599996,201.413993 526.204,199.764009 526.204,197.892 C526.204,195.92399 526.593996,194.202007 527.374,192.726 C528.154004,191.249993 529.191994,190.122004 530.488,189.342 C531.784006,188.561996 533.163993,188.172 534.628,188.172 C536.068007,188.172 537.417994,188.507997 538.678,189.18 C539.938006,189.852003 540.963996,190.835994 541.756,192.132 C542.548004,193.428006 542.956,194.963991 542.98,196.74 Z M534.628,190.26 C533.235993,190.26 531.946006,190.739995 530.758,191.7 C529.569994,192.660005 528.808002,194.039991 528.472,195.84 L540.748,195.84 L540.748,195.552 C540.627999,194.471995 540.268003,193.530004 539.668,192.726 C539.067997,191.921996 538.318005,191.310002 537.418,190.89 C536.517995,190.469998 535.588005,190.26 534.628,190.26 Z M556.048,188.172 C556.528002,188.172 556.959998,188.267999 557.344,188.46 C557.728002,188.652001 557.92,188.939998 557.92,189.324 C557.92,189.660002 557.824001,189.929999 557.632,190.134 C557.439999,190.338001 557.212001,190.44 556.948,190.44 C556.827999,190.44 556.594002,190.380001 556.246,190.26 C555.897998,190.139999 555.568002,190.08 555.256,190.08 C554.367996,190.08 553.486004,190.421997 552.61,191.106 C551.733996,191.790003 551.014003,192.671995 550.45,193.752 C549.885997,194.832005 549.604,195.923994 549.604,197.028 L549.604,205.92 C549.604,206.232002 549.502001,206.489999 549.298,206.694 C549.093999,206.898001 548.836002,207 548.524,207 C548.211998,207 547.954001,206.898001 547.75,206.694 C547.545999,206.489999 547.444,206.232002 547.444,205.92 L547.444,189.792 C547.444,189.479998 547.545999,189.222001 547.75,189.018 C547.954001,188.813999 548.211998,188.712 548.524,188.712 C548.836002,188.712 549.093999,188.813999 549.298,189.018 C549.502001,189.222001 549.604,189.479998 549.604,189.792 L549.604,192.96 C550.156003,191.591993 550.989994,190.458004 552.106,189.558 C553.222006,188.657995 554.535992,188.196 556.048,188.172 Z M564.076,206.892 C564.076,207.564003 563.902002,208.241997 563.554,208.926 C563.205998,209.610003 562.768003,210.173998 562.24,210.618 C561.711997,211.062002 561.196003,211.284 560.692,211.284 C560.427999,211.284 560.206001,211.218001 560.026,211.086 C559.845999,210.953999 559.756,210.756001 559.756,210.492 C559.756,210.251999 559.815999,210.084 559.936,209.988 C560.056001,209.892 560.241999,209.808 560.494,209.736 C560.746001,209.664 560.931999,209.592 561.052,209.52 C561.388002,209.351999 561.645999,209.106002 561.826,208.782 C562.006001,208.457998 562.096,208.104002 562.096,207.72 C562.096,207.455999 562.024001,207.240001 561.88,207.072 C561.735999,206.903999 561.544001,206.82 561.304,206.82 C560.919998,206.82 560.596001,206.927999 560.332,207.144 C560.043999,206.903999 559.9,206.616002 559.9,206.28 C559.9,205.847998 560.115998,205.470002 560.548,205.146 C560.980002,204.821998 561.447997,204.66 561.952,204.66 C562.576003,204.66 563.085998,204.857998 563.482,205.254 C563.878002,205.650002 564.076,206.195997 564.076,206.892 Z M599.968,188.208 C600.280002,188.208 600.537999,188.303999 600.742,188.496 C600.946001,188.688001 601.048,188.951998 601.048,189.288 C601.048,189.312 601.012,189.467999 600.94,189.756 L595.396,206.316 C595.275999,206.532001 595.120001,206.705999 594.928,206.838 C594.735999,206.970001 594.532001,207.024 594.316,207 C594.099999,207 593.908001,206.940001 593.74,206.82 C593.571999,206.699999 593.44,206.532001 593.344,206.316 L588.628,195.228 L584.416,206.316 C584.32,206.508001 584.182001,206.669999 584.002,206.802 C583.821999,206.934001 583.636001,207 583.444,207 C583.203999,207.024 582.982001,206.970001 582.778,206.838 C582.573999,206.705999 582.436,206.532001 582.364,206.316 L576.676,189.756 C576.604,189.611999 576.568,189.456001 576.568,189.288 C576.568,188.975998 576.675999,188.718001 576.892,188.514 C577.108001,188.309999 577.371998,188.208 577.684,188.208 C577.900001,188.208 578.097999,188.273999 578.278,188.406 C578.458001,188.538001 578.584,188.711999 578.656,188.928 L583.444,203.292 L587.728,192.528 C587.896001,192.071998 588.231997,191.844 588.736,191.844 C589.216002,191.844 589.551999,192.071998 589.744,192.528 L594.244,203.22 L598.96,188.928 C599.104001,188.447998 599.439997,188.208 599.968,188.208 Z M620.74,196.74 C620.74,197.028001 620.632001,197.273999 620.416,197.478 C620.199999,197.682001 619.948001,197.784 619.66,197.784 L606.052,197.784 C606.052,199.224007 606.345997,200.513994 606.934,201.654 C607.522003,202.794006 608.361995,203.693997 609.454,204.354 C610.546005,205.014003 611.835993,205.344 613.324,205.344 C614.476006,205.344 615.507995,205.104002 616.42,204.624 C617.332005,204.143998 618.063997,203.532004 618.616,202.788 C618.880001,202.571999 619.131999,202.464 619.372,202.464 C619.612001,202.464 619.827999,202.559999 620.02,202.752 C620.212001,202.944001 620.308,203.159999 620.308,203.4 C620.308,203.664001 620.188001,203.915999 619.948,204.156 C619.179996,205.092005 618.214006,205.859997 617.05,206.46 C615.885994,207.060003 614.656006,207.36 613.36,207.36 C611.511991,207.36 609.880007,206.964004 608.464,206.172 C607.047993,205.379996 605.944004,204.270007 605.152,202.842 C604.359996,201.413993 603.964,199.764009 603.964,197.892 C603.964,195.92399 604.353996,194.202007 605.134,192.726 C605.914004,191.249993 606.951994,190.122004 608.248,189.342 C609.544006,188.561996 610.923993,188.172 612.388,188.172 C613.828007,188.172 615.177994,188.507997 616.438,189.18 C617.698006,189.852003 618.723996,190.835994 619.516,192.132 C620.308004,193.428006 620.716,194.963991 620.74,196.74 Z M612.388,190.26 C610.995993,190.26 609.706006,190.739995 608.518,191.7 C607.329994,192.660005 606.568002,194.039991 606.232,195.84 L618.508,195.84 L618.508,195.552 C618.387999,194.471995 618.028003,193.530004 617.428,192.726 C616.827997,191.921996 616.078005,191.310002 615.178,190.89 C614.277995,190.469998 613.348005,190.26 612.388,190.26 Z M633.952,188.172 C635.536008,188.172 636.975994,188.579996 638.272,189.396 C639.568006,190.212004 640.581996,191.345993 641.314,192.798 C642.046004,194.250007 642.412,195.887991 642.412,197.712 C642.412,199.512009 642.046004,201.149993 641.314,202.626 C640.581996,204.102007 639.574006,205.259996 638.29,206.1 C637.005994,206.940004 635.572008,207.36 633.988,207.36 C632.619993,207.36 631.354006,207.018003 630.19,206.334 C629.025994,205.649997 628.084004,204.744006 627.364,203.616 L627.364,205.992 C627.364,206.304002 627.262001,206.567999 627.058,206.784 C626.853999,207.000001 626.596002,207.108 626.284,207.108 C625.971998,207.108 625.714001,207.000001 625.51,206.784 C625.305999,206.567999 625.204,206.304002 625.204,205.992 L625.204,181.476 C625.204,181.163998 625.305999,180.906001 625.51,180.702 C625.714001,180.497999 625.971998,180.396 626.284,180.396 C626.596002,180.396 626.853999,180.497999 627.058,180.702 C627.262001,180.906001 627.364,181.163998 627.364,181.476 L627.364,192.096 C628.012003,190.919994 628.923994,189.972004 630.1,189.252 C631.276006,188.531996 632.559993,188.172 633.952,188.172 Z M633.772,205.344 C635.020006,205.344 636.141995,205.008003 637.138,204.336 C638.134005,203.663997 638.913997,202.746006 639.478,201.582 C640.042003,200.417994 640.324,199.128007 640.324,197.712 C640.324,196.271993 640.042003,194.982006 639.478,193.842 C638.913997,192.701994 638.134005,191.808003 637.138,191.16 C636.141995,190.511997 635.020006,190.188 633.772,190.188 C632.499994,190.188 631.360005,190.505997 630.352,191.142 C629.343995,191.778003 628.564003,192.671994 628.012,193.824 C627.459997,194.976006 627.184,196.271993 627.184,197.712 C627.184,199.152007 627.465997,200.453994 628.03,201.618 C628.594003,202.782006 629.373995,203.693997 630.37,204.354 C631.366005,205.014003 632.499994,205.344 633.772,205.344 Z M671.644,180.36 C671.956002,180.36 672.213999,180.461999 672.418,180.666 C672.622001,180.870001 672.724,181.127998 672.724,181.44 L672.724,205.92 C672.724,206.232002 672.622001,206.489999 672.418,206.694 C672.213999,206.898001 671.956002,207 671.644,207 C671.331998,207 671.074001,206.898001 670.87,206.694 C670.665999,206.489999 670.564,206.232002 670.564,205.92 L670.564,203.4 C669.963997,204.504006 669.070006,205.439996 667.882,206.208 C666.693994,206.976004 665.380007,207.36 663.94,207.36 C662.355992,207.36 660.922006,206.946004 659.638,206.118 C658.353994,205.289996 657.340004,204.144007 656.596,202.68 C655.851996,201.215993 655.48,199.572009 655.48,197.748 C655.48,195.947991 655.851996,194.316007 656.596,192.852 C657.340004,191.387993 658.353994,190.242004 659.638,189.414 C660.922006,188.585996 662.343992,188.172 663.904,188.172 C665.320007,188.172 666.627994,188.525996 667.828,189.234 C669.028006,189.942004 669.939997,190.859994 670.564,191.988 L670.564,181.44 C670.564,181.127998 670.665999,180.870001 670.87,180.666 C671.074001,180.461999 671.331998,180.36 671.644,180.36 Z M664.156,205.344 C665.404006,205.344 666.525995,205.020003 667.522,204.372 C668.518005,203.723997 669.297997,202.818006 669.862,201.654 C670.426003,200.489994 670.708,199.188007 670.708,197.748 C670.708,196.331993 670.426003,195.048006 669.862,193.896 C669.297997,192.743994 668.518005,191.838003 667.522,191.178 C666.525995,190.517997 665.404006,190.188 664.156,190.188 C662.907994,190.188 661.786005,190.517997 660.79,191.178 C659.793995,191.838003 659.014003,192.743994 658.45,193.896 C657.885997,195.048006 657.604,196.331993 657.604,197.748 C657.604,199.188007 657.885997,200.483994 658.45,201.636 C659.014003,202.788006 659.793995,203.693997 660.79,204.354 C661.786005,205.014003 662.907994,205.344 664.156,205.344 Z M693.928,196.74 C693.928,197.028001 693.820001,197.273999 693.604,197.478 C693.387999,197.682001 693.136001,197.784 692.848,197.784 L679.24,197.784 C679.24,199.224007 679.533997,200.513994 680.122,201.654 C680.710003,202.794006 681.549995,203.693997 682.642,204.354 C683.734005,205.014003 685.023993,205.344 686.512,205.344 C687.664006,205.344 688.695995,205.104002 689.608,204.624 C690.520005,204.143998 691.251997,203.532004 691.804,202.788 C692.068001,202.571999 692.319999,202.464 692.56,202.464 C692.800001,202.464 693.015999,202.559999 693.208,202.752 C693.400001,202.944001 693.496,203.159999 693.496,203.4 C693.496,203.664001 693.376001,203.915999 693.136,204.156 C692.367996,205.092005 691.402006,205.859997 690.238,206.46 C689.073994,207.060003 687.844006,207.36 686.548,207.36 C684.699991,207.36 683.068007,206.964004 681.652,206.172 C680.235993,205.379996 679.132004,204.270007 678.34,202.842 C677.547996,201.413993 677.152,199.764009 677.152,197.892 C677.152,195.92399 677.541996,194.202007 678.322,192.726 C679.102004,191.249993 680.139994,190.122004 681.436,189.342 C682.732006,188.561996 684.111993,188.172 685.576,188.172 C687.016007,188.172 688.365994,188.507997 689.626,189.18 C690.886006,189.852003 691.911996,190.835994 692.704,192.132 C693.496004,193.428006 693.904,194.963991 693.928,196.74 Z M685.576,190.26 C684.183993,190.26 682.894006,190.739995 681.706,191.7 C680.517994,192.660005 679.756002,194.039991 679.42,195.84 L691.696,195.84 L691.696,195.552 C691.575999,194.471995 691.216003,193.530004 690.616,192.726 C690.015997,191.921996 689.266005,191.310002 688.366,190.89 C687.465995,190.469998 686.536005,190.26 685.576,190.26 Z M712.108,188.244 C712.348001,188.244 712.575999,188.327999 712.792,188.496 C713.008001,188.664001 713.116,188.879999 713.116,189.144 C713.116,189.360001 713.068,189.563999 712.972,189.756 L705.916,206.316 C705.82,206.508001 705.682001,206.669999 705.502,206.802 C705.321999,206.934001 705.136001,207 704.944,207 C704.703999,207.024 704.488001,206.976001 704.296,206.856 C704.103999,206.735999 703.96,206.556001 703.864,206.316 L696.772,189.756 C696.772,189.708 696.754,189.636 696.718,189.54 C696.682,189.444 696.664,189.348 696.664,189.252 C696.664,188.963999 696.759999,188.718001 696.952,188.514 C697.144001,188.309999 697.419998,188.208 697.78,188.208 C697.996001,188.208 698.193999,188.273999 698.374,188.406 C698.554001,188.538001 698.692,188.711999 698.788,188.928 L704.908,203.508 L711.064,188.928 C711.16,188.711999 711.297999,188.538001 711.478,188.406 C711.658001,188.273999 711.867999,188.22 712.108,188.244 Z M732.628,196.74 C732.628,197.028001 732.520001,197.273999 732.304,197.478 C732.087999,197.682001 731.836001,197.784 731.548,197.784 L717.94,197.784 C717.94,199.224007 718.233997,200.513994 718.822,201.654 C719.410003,202.794006 720.249995,203.693997 721.342,204.354 C722.434005,205.014003 723.723993,205.344 725.212,205.344 C726.364006,205.344 727.395995,205.104002 728.308,204.624 C729.220005,204.143998 729.951997,203.532004 730.504,202.788 C730.768001,202.571999 731.019999,202.464 731.26,202.464 C731.500001,202.464 731.715999,202.559999 731.908,202.752 C732.100001,202.944001 732.196,203.159999 732.196,203.4 C732.196,203.664001 732.076001,203.915999 731.836,204.156 C731.067996,205.092005 730.102006,205.859997 728.938,206.46 C727.773994,207.060003 726.544006,207.36 725.248,207.36 C723.399991,207.36 721.768007,206.964004 720.352,206.172 C718.935993,205.379996 717.832004,204.270007 717.04,202.842 C716.247996,201.413993 715.852,199.764009 715.852,197.892 C715.852,195.92399 716.241996,194.202007 717.022,192.726 C717.802004,191.249993 718.839994,190.122004 720.136,189.342 C721.432006,188.561996 722.811993,188.172 724.276,188.172 C725.716007,188.172 727.065994,188.507997 728.326,189.18 C729.586006,189.852003 730.611996,190.835994 731.404,192.132 C732.196004,193.428006 732.604,194.963991 732.628,196.74 Z M724.276,190.26 C722.883993,190.26 721.594006,190.739995 720.406,191.7 C719.217994,192.660005 718.456002,194.039991 718.12,195.84 L730.396,195.84 L730.396,195.552 C730.275999,194.471995 729.916003,193.530004 729.316,192.726 C728.715997,191.921996 727.966005,191.310002 727.066,190.89 C726.165996,190.469998 725.236005,190.26 724.276,190.26 Z M739.468,205.92 C739.468,206.232002 739.366001,206.489999 739.162,206.694 C738.957999,206.898001 738.700002,207 738.388,207 C738.075998,207 737.818001,206.898001 737.614,206.694 C737.409999,206.489999 737.308,206.232002 737.308,205.92 L737.308,181.44 C737.308,181.127998 737.409999,180.870001 737.614,180.666 C737.818001,180.461999 738.075998,180.36 738.388,180.36 C738.700002,180.36 738.957999,180.461999 739.162,180.666 C739.366001,180.870001 739.468,181.127998 739.468,181.44 L739.468,205.92 Z M762.004,197.784 C762.004,199.584009 761.608004,201.215993 760.816,202.68 C760.023996,204.144007 758.932007,205.289996 757.54,206.118 C756.147993,206.946004 754.600009,207.36 752.896,207.36 C751.191991,207.36 749.644007,206.946004 748.252,206.118 C746.859993,205.289996 745.768004,204.144007 744.976,202.68 C744.183996,201.215993 743.788,199.584009 743.788,197.784 C743.788,195.983991 744.183996,194.352007 744.976,192.888 C745.768004,191.423993 746.859993,190.272004 748.252,189.432 C749.644007,188.591996 751.191991,188.172 752.896,188.172 C754.600009,188.172 756.147993,188.591996 757.54,189.432 C758.932007,190.272004 760.023996,191.423993 760.816,192.888 C761.608004,194.352007 762.004,195.983991 762.004,197.784 Z M759.844,197.784 C759.844,196.343993 759.544003,195.048006 758.944,193.896 C758.343997,192.743994 757.510005,191.838003 756.442,191.178 C755.373995,190.517997 754.192006,190.188 752.896,190.188 C751.599994,190.188 750.424005,190.517997 749.368,191.178 C748.311995,191.838003 747.478003,192.743994 746.866,193.896 C746.253997,195.048006 745.948,196.343993 745.948,197.784 C745.948,199.200007 746.253997,200.483994 746.866,201.636 C747.478003,202.788006 748.311995,203.693997 749.368,204.354 C750.424005,205.014003 751.599994,205.344 752.896,205.344 C754.192006,205.344 755.373995,205.020003 756.442,204.372 C757.510005,203.723997 758.343997,202.824006 758.944,201.672 C759.544003,200.519994 759.844,199.224007 759.844,197.784 Z M775.18,188.46 C776.764008,188.46 778.203994,188.861996 779.5,189.666 C780.796006,190.470004 781.809996,191.585993 782.542,193.014 C783.274004,194.442007 783.64,196.043991 783.64,197.82 C783.64,199.620009 783.274004,201.233993 782.542,202.662 C781.809996,204.090007 780.802006,205.211996 779.518,206.028 C778.233994,206.844004 776.800008,207.252 775.216,207.252 C773.823993,207.252 772.546006,206.922003 771.382,206.262 C770.217994,205.601997 769.288003,204.720006 768.592,203.616 L768.592,213.12 C768.592,213.432002 768.490001,213.689999 768.286,213.894 C768.081999,214.098001 767.824002,214.2 767.512,214.2 C767.199998,214.2 766.942001,214.098001 766.738,213.894 C766.533999,213.689999 766.432,213.432002 766.432,213.12 L766.432,189.648 C766.432,189.335998 766.533999,189.072001 766.738,188.856 C766.942001,188.639999 767.199998,188.532 767.512,188.532 C767.824002,188.532 768.081999,188.639999 768.286,188.856 C768.490001,189.072001 768.592,189.335998 768.592,189.648 L768.592,192.096 C769.216003,190.967994 770.115994,190.080003 771.292,189.432 C772.468006,188.783997 773.763993,188.46 775.18,188.46 Z M775,205.236 C776.248006,205.236 777.369995,204.918003 778.366,204.282 C779.362005,203.645997 780.141997,202.764006 780.706,201.636 C781.270003,200.507994 781.552,199.236007 781.552,197.82 C781.552,196.427993 781.270003,195.174006 780.706,194.058 C780.141997,192.941994 779.362005,192.066003 778.366,191.43 C777.369995,190.793997 776.248006,190.476 775,190.476 C773.727994,190.476 772.588005,190.787997 771.58,191.412 C770.571995,192.036003 769.792003,192.905994 769.24,194.022 C768.687997,195.138006 768.412,196.403993 768.412,197.82 C768.412,199.236007 768.687997,200.507994 769.24,201.636 C769.792003,202.764006 770.571995,203.645997 771.58,204.282 C772.588005,204.918003 773.727994,205.236 775,205.236 Z M803.656,196.74 C803.656,197.028001 803.548001,197.273999 803.332,197.478 C803.115999,197.682001 802.864001,197.784 802.576,197.784 L788.968,197.784 C788.968,199.224007 789.261997,200.513994 789.85,201.654 C790.438003,202.794006 791.277995,203.693997 792.37,204.354 C793.462005,205.014003 794.751993,205.344 796.24,205.344 C797.392006,205.344 798.423995,205.104002 799.336,204.624 C800.248005,204.143998 800.979997,203.532004 801.532,202.788 C801.796001,202.571999 802.047999,202.464 802.288,202.464 C802.528001,202.464 802.743999,202.559999 802.936,202.752 C803.128001,202.944001 803.224,203.159999 803.224,203.4 C803.224,203.664001 803.104001,203.915999 802.864,204.156 C802.095996,205.092005 801.130006,205.859997 799.966,206.46 C798.801994,207.060003 797.572006,207.36 796.276,207.36 C794.427991,207.36 792.796007,206.964004 791.38,206.172 C789.963993,205.379996 788.860004,204.270007 788.068,202.842 C787.275996,201.413993 786.88,199.764009 786.88,197.892 C786.88,195.92399 787.269996,194.202007 788.05,192.726 C788.830004,191.249993 789.867994,190.122004 791.164,189.342 C792.460006,188.561996 793.839993,188.172 795.304,188.172 C796.744007,188.172 798.093994,188.507997 799.354,189.18 C800.614006,189.852003 801.639996,190.835994 802.432,192.132 C803.224004,193.428006 803.632,194.963991 803.656,196.74 Z M795.304,190.26 C793.911993,190.26 792.622006,190.739995 791.434,191.7 C790.245994,192.660005 789.484002,194.039991 789.148,195.84 L801.424,195.84 L801.424,195.552 C801.303999,194.471995 800.944003,193.530004 800.344,192.726 C799.743997,191.921996 798.994005,191.310002 798.094,190.89 C797.193996,190.469998 796.264005,190.26 795.304,190.26 Z M816.724,188.172 C817.204002,188.172 817.635998,188.267999 818.02,188.46 C818.404002,188.652001 818.596,188.939998 818.596,189.324 C818.596,189.660002 818.500001,189.929999 818.308,190.134 C818.115999,190.338001 817.888001,190.44 817.624,190.44 C817.503999,190.44 817.270002,190.380001 816.922,190.26 C816.573998,190.139999 816.244002,190.08 815.932,190.08 C815.043996,190.08 814.162004,190.421997 813.286,191.106 C812.409996,191.790003 811.690003,192.671995 811.126,193.752 C810.561997,194.832005 810.28,195.923994 810.28,197.028 L810.28,205.92 C810.28,206.232002 810.178001,206.489999 809.974,206.694 C809.769999,206.898001 809.512002,207 809.2,207 C808.887998,207 808.630001,206.898001 808.426,206.694 C808.221999,206.489999 808.12,206.232002 808.12,205.92 L808.12,189.792 C808.12,189.479998 808.221999,189.222001 808.426,189.018 C808.630001,188.813999 808.887998,188.712 809.2,188.712 C809.512002,188.712 809.769999,188.813999 809.974,189.018 C810.178001,189.222001 810.28,189.479998 810.28,189.792 L810.28,192.96 C810.832003,191.591993 811.665994,190.458004 812.782,189.558 C813.898006,188.657995 815.211992,188.196 816.724,188.172 Z" id="tagline" fill-opacity="0.7" fill="#FFFFFF"></path>
            <path d="M273.135823,81.9465633 L273.135823,105.724643 L296.510885,105.724643 C301.526249,105.724643 305.063818,104.605159 307.1237,102.366157 C309.183582,100.127155 310.213507,97.3060555 310.213507,93.9027729 C310.213507,90.4099301 309.205971,87.5440509 307.19087,85.3050491 C305.175768,83.0660474 301.839706,81.9465633 297.182582,81.9465633 L273.135823,81.9465633 Z M306.989361,155.698912 L306.989361,132.726869 C306.989361,128.427986 306.004215,125.360599 304.033893,123.524618 C302.063572,121.688636 298.391664,120.770659 293.01806,120.770659 L273.135823,120.770659 L273.135823,155.698912 L255,155.698912 L255,66.4975285 L300.272389,66.4975285 C304.392152,66.4975285 308.131229,67.1468293 311.489732,68.4454503 C314.848234,69.7440713 317.736503,71.5352458 320.154625,73.8190276 C322.572747,76.1028094 324.431091,78.8343505 325.729712,82.013733 C327.028333,85.1931155 327.677633,88.6187368 327.677633,92.2906997 C327.677633,97.1269434 326.53576,101.403373 324.251978,105.120116 C321.968196,108.836858 318.676913,111.456451 314.378029,112.978972 C318.318673,114.232813 321.117383,116.158326 322.774244,118.755568 C324.431105,121.35281 325.259524,125.248615 325.259524,130.443099 L325.259524,155.698912 L306.989361,155.698912 Z M375.90549,116.203119 C375.81593,113.784997 375.390526,111.657977 374.629265,109.821996 C373.868005,107.986014 372.860469,106.463516 371.606628,105.254455 C370.352787,104.045394 368.919847,103.149807 367.307766,102.567666 C365.695685,101.985526 364.038848,101.69446 362.337207,101.69446 C358.844364,101.69446 355.821757,102.970672 353.269295,105.523134 C350.716833,108.075596 349.261504,111.635555 348.903264,116.203119 L375.90549,116.203119 Z M348.365906,127.218952 C348.634586,132.234316 350.089916,136.21968 352.731938,139.175162 C355.37396,142.130644 358.84436,143.608363 363.143244,143.608363 C366.009166,143.608363 368.5392,142.959062 370.733422,141.660441 C372.927643,140.36182 374.338193,138.548256 374.965114,136.219694 L392.966598,136.219694 C390.906716,143.02626 387.324367,148.265445 382.219443,151.937408 C377.114519,155.609371 371.024526,157.445325 363.94928,157.445325 C341.917503,157.445325 330.90178,145.444455 330.90178,121.442357 C330.90178,116.337433 331.61825,111.725158 333.051211,107.605395 C334.484172,103.485632 336.566412,99.9480621 339.297994,96.9925798 C342.029576,94.0370975 345.365639,91.7757397 349.306282,90.2084384 C353.246925,88.6411372 357.769641,87.8574984 362.874565,87.8574984 C373.084413,87.8574984 380.808853,91.1263919 386.048117,97.664277 C391.287381,104.202162 393.906974,114.053622 393.906974,127.218952 L348.365906,127.218952 Z M442.26917,155.698912 L442.26917,146.429491 C437.791166,153.773417 430.939924,157.445325 421.715236,157.445325 C418.401514,157.445325 415.378907,156.863193 412.647325,155.698912 C409.915743,154.534631 407.564826,152.877795 405.594505,150.728353 C403.624183,148.578911 402.079295,146.026488 400.959794,143.071005 C399.840293,140.115523 399.280551,136.80185 399.280551,133.129887 L399.280551,89.603911 L416.744677,89.603911 L416.744677,130.443099 C416.744677,138.682625 420.461365,142.802327 427.89485,142.802327 C432.372854,142.802327 435.753696,141.391777 438.037478,138.570634 C440.321259,135.749492 441.463133,132.144753 441.463133,127.75631 L441.463133,89.603911 L458.79292,89.603911 L458.79292,155.698912 L442.26917,155.698912 Z M497.079658,143.205345 C501.468102,143.205345 505.050451,141.347001 507.826813,137.630258 C510.603175,133.913515 511.991336,129.099734 511.991336,123.188769 C511.991336,109.575639 506.976047,102.769175 496.945319,102.769175 C487.183271,102.769175 482.302321,109.933874 482.302321,124.263485 C482.302321,129.905769 483.712871,134.473264 486.534013,137.966107 C489.355155,141.45895 492.870335,143.205345 497.079658,143.205345 Z M465.778571,155.698912 L465.778571,65.422813 L482.974018,65.422813 L482.974018,98.2016347 C487.899822,91.3055093 494.437609,87.8574984 502.587575,87.8574984 C506.886459,87.8574984 510.715094,88.6859166 514.073597,90.3427779 C517.432099,91.9996392 520.275589,94.3505557 522.604151,97.3955981 C524.932713,100.44064 526.701497,104.045379 527.910558,108.209922 C529.119619,112.374466 529.724141,116.96435 529.724141,121.979714 C529.724141,127.532439 529.007671,132.502948 527.57471,136.891391 C526.141749,141.279835 524.171457,144.996522 521.663775,148.041564 C519.156093,151.086607 516.133486,153.415134 512.595863,155.027215 C509.05824,156.639296 505.229605,157.445325 501.109841,157.445325 C492.870315,157.445325 486.735542,154.176431 482.705339,147.638546 L482.571,155.698912 L465.778571,155.698912 Z M579.026713,116.203119 C578.937153,113.784997 578.511749,111.657977 577.750488,109.821996 C576.989227,107.986014 575.981692,106.463516 574.727851,105.254455 C573.47401,104.045394 572.04107,103.149807 570.428989,102.567666 C568.816908,101.985526 567.160071,101.69446 565.45843,101.69446 C561.965587,101.69446 558.94298,102.970672 556.390518,105.523134 C553.838056,108.075596 552.382727,111.635555 552.024487,116.203119 L579.026713,116.203119 Z M551.487129,127.218952 C551.755809,132.234316 553.211138,136.21968 555.85316,139.175162 C558.495183,142.130644 561.965583,143.608363 566.264467,143.608363 C569.130389,143.608363 571.660423,142.959062 573.854644,141.660441 C576.048866,140.36182 577.459416,138.548256 578.086337,136.219694 L596.087821,136.219694 C594.027939,143.02626 590.44559,148.265445 585.340666,151.937408 C580.235742,155.609371 574.145749,157.445325 567.070503,157.445325 C545.038726,157.445325 534.023003,145.444455 534.023003,121.442357 C534.023003,116.337433 534.739472,111.725158 536.172433,107.605395 C537.605395,103.485632 539.687635,99.9480621 542.419217,96.9925798 C545.150799,94.0370975 548.486862,91.7757397 552.427505,90.2084384 C556.368148,88.6411372 560.890864,87.8574984 565.995788,87.8574984 C576.205636,87.8574984 583.930076,91.1263919 589.16934,97.664277 C594.408604,104.202162 597.028197,114.053622 597.028197,127.218952 L551.487129,127.218952 Z M644.718695,155.698912 L644.718695,115.665761 C644.718695,110.560837 643.867888,107.112826 642.166246,105.321625 C640.464605,103.530423 637.553946,102.634836 633.434183,102.634836 C624.388616,102.634836 619.8659,107.694904 619.8659,117.815192 L619.8659,155.698912 L602.401774,155.698912 L602.401774,89.603911 L619.059864,89.603911 L619.059864,99.2763502 C621.119745,95.5148272 623.851286,92.6713377 627.254569,90.7457962 C630.657852,88.8202547 635.046229,87.8574984 640.419834,87.8574984 C643.554436,87.8574984 646.465095,88.3276817 649.151897,89.2680624 C651.838699,90.2084431 654.144836,91.6189931 656.070378,93.4997546 C657.995919,95.380516 659.518417,97.6866532 660.637918,100.418235 C661.757419,103.149817 662.317161,106.306763 662.317161,109.889165 L662.317161,155.698912 L644.718695,155.698912 Z M720.217457,81.9465633 L720.217457,105.724643 L743.592518,105.724643 C748.607882,105.724643 752.145452,104.605159 754.205333,102.366157 C756.265215,100.127155 757.29514,97.3060555 757.29514,93.9027729 C757.29514,90.4099301 756.287605,87.5440509 754.272503,85.3050491 C752.257402,83.0660474 748.921339,81.9465633 744.264215,81.9465633 L720.217457,81.9465633 Z M754.070994,155.698912 L754.070994,132.726869 C754.070994,128.427986 753.085848,125.360599 751.115526,123.524618 C749.145205,121.688636 745.473297,120.770659 740.099693,120.770659 L720.217457,120.770659 L720.217457,155.698912 L702.081633,155.698912 L702.081633,66.4975285 L747.354022,66.4975285 C751.473786,66.4975285 755.212862,67.1468293 758.571365,68.4454503 C761.929868,69.7440713 764.818137,71.5352458 767.236258,73.8190276 C769.65438,76.1028094 771.512724,78.8343505 772.811345,82.013733 C774.109966,85.1931155 774.759267,88.6187368 774.759267,92.2906997 C774.759267,97.1269434 773.617393,101.403373 771.333611,105.120116 C769.049829,108.836858 765.758546,111.456451 761.459663,112.978972 C765.400306,114.232813 768.199016,116.158326 769.855877,118.755568 C771.512739,121.35281 772.341157,125.248615 772.341157,130.443099 L772.341157,155.698912 L754.070994,155.698912 Z M822.987123,116.203119 C822.897563,113.784997 822.472159,111.657977 821.710899,109.821996 C820.949638,107.986014 819.942102,106.463516 818.688261,105.254455 C817.43442,104.045394 816.001481,103.149807 814.389399,102.567666 C812.777318,101.985526 811.120482,101.69446 809.41884,101.69446 C805.925998,101.69446 802.903391,102.970672 800.350929,105.523134 C797.798467,108.075596 796.343137,111.635555 795.984897,116.203119 L822.987123,116.203119 Z M795.447539,127.218952 C795.71622,132.234316 797.171549,136.21968 799.813571,139.175162 C802.455593,142.130644 805.925994,143.608363 810.224877,143.608363 C813.090799,143.608363 815.620833,142.959062 817.815055,141.660441 C820.009277,140.36182 821.419827,138.548256 822.046747,136.219694 L840.048231,136.219694 C837.98835,143.02626 834.406001,148.265445 829.301077,151.937408 C824.196153,155.609371 818.106159,157.445325 811.030914,157.445325 C788.999136,157.445325 777.983413,145.444455 777.983413,121.442357 C777.983413,116.337433 778.699883,111.725158 780.132844,107.605395 C781.565805,103.485632 783.648046,99.9480621 786.379628,96.9925798 C789.11121,94.0370975 792.447272,91.7757397 796.387915,90.2084384 C800.328559,88.6411372 804.851274,87.8574984 809.956198,87.8574984 C820.166046,87.8574984 827.890486,91.1263919 833.12975,97.664277 C838.369014,104.202162 840.988607,114.053622 840.988607,127.218952 L795.447539,127.218952 Z M888.410427,146.966849 C887.156586,149.922331 884.895228,152.228468 881.626286,153.88533 C878.357343,155.542191 874.663046,156.370609 870.543283,156.370609 C867.05044,156.370609 863.826326,155.810867 860.870843,154.691366 C857.915361,153.571865 855.362937,151.959808 853.213496,149.855147 C851.064054,147.750485 849.384828,145.242841 848.175767,142.332138 C846.966706,139.421436 846.362185,136.130153 846.362185,132.45819 L846.362185,89.603911 L863.826311,89.603911 L863.826311,129.905741 C863.826311,138.145267 867.542998,142.264969 874.976484,142.264969 C879.006687,142.264969 882.253191,141.100705 884.716093,138.772144 C887.178995,136.443582 888.410427,133.488144 888.410427,129.905741 L888.410427,89.603911 L905.874553,89.603911 L905.874553,157.445325 C905.874553,162.102448 905.090915,166.266929 903.523613,169.938892 C901.956312,173.610855 899.806903,176.700631 897.075321,179.208313 C894.343738,181.715995 891.119624,183.641507 887.402881,184.984909 C883.686138,186.32831 879.723165,187 875.513842,187 C865.751794,187 858.452758,184.537135 853.616514,179.611331 C848.78027,174.685527 846.362185,167.923843 846.362185,159.326077 L862.617256,159.326077 C862.617256,163.26672 863.75913,166.356496 866.042911,168.595498 C868.326693,170.834499 871.752315,171.953983 876.319878,171.953983 C877.931959,171.953983 879.454458,171.618138 880.887419,170.946438 C882.32038,170.274737 883.596592,169.334371 884.716093,168.12531 C885.835594,166.916249 886.731181,165.41614 887.402881,163.624939 C888.074582,161.833737 888.410427,159.863445 888.410427,157.714004 L888.410427,146.966849 Z M956.38618,116.203119 C956.29662,113.784997 955.871216,111.657977 955.109956,109.821996 C954.348695,107.986014 953.341159,106.463516 952.087318,105.254455 C950.833477,104.045394 949.400538,103.149807 947.788457,102.567666 C946.176375,101.985526 944.519539,101.69446 942.817898,101.69446 C939.325055,101.69446 936.302448,102.970672 933.749986,105.523134 C931.197524,108.075596 929.742194,111.635555 929.383954,116.203119 L956.38618,116.203119 Z M928.846596,127.218952 C929.115277,132.234316 930.570606,136.21968 933.212628,139.175162 C935.85465,142.130644 939.325051,143.608363 943.623934,143.608363 C946.489856,143.608363 949.01989,142.959062 951.214112,141.660441 C953.408334,140.36182 954.818884,138.548256 955.445804,136.219694 L973.447288,136.219694 C971.387407,143.02626 967.805058,148.265445 962.700134,151.937408 C957.59521,155.609371 951.505216,157.445325 944.429971,157.445325 C922.398194,157.445325 911.38247,145.444455 911.38247,121.442357 C911.38247,116.337433 912.09894,111.725158 913.531901,107.605395 C914.964862,103.485632 917.047103,99.9480621 919.778685,96.9925798 C922.510267,94.0370975 925.846329,91.7757397 929.786973,90.2084384 C933.727616,88.6411372 938.250331,87.8574984 943.355255,87.8574984 C953.565103,87.8574984 961.289543,91.1263919 966.528807,97.664277 C971.768072,104.202162 974.387664,114.053622 974.387664,127.218952 L928.846596,127.218952 Z M1019.52571,109.620487 C1019.07791,106.575444 1017.93604,104.358866 1016.10006,102.970685 C1014.26408,101.582504 1011.46537,100.888423 1007.70384,100.888423 C1004.12144,100.888423 1001.41229,101.313827 999.576308,102.164648 C997.740327,103.015469 996.82235,104.470798 996.82235,106.53068 C996.82235,108.321881 997.740327,109.754821 999.576308,110.829541 C1001.41229,111.904262 1004.07666,112.934188 1007.5695,113.919348 C1013.30135,115.53143 1018.13752,116.8972 1022.07816,118.016701 C1026.01881,119.136202 1029.17575,120.457193 1031.54909,121.979714 C1033.92243,123.502236 1035.62405,125.405359 1036.65399,127.68914 C1037.68393,129.972922 1038.1989,133.040308 1038.1989,136.891391 C1038.1989,142.802356 1035.73603,147.705696 1030.81023,151.601559 C1025.88442,155.497422 1018.58539,157.445325 1008.9129,157.445325 C1004.16621,157.445325 999.867396,156.907972 996.016313,155.833252 C992.16523,154.758531 988.873947,153.213643 986.142365,151.198541 C983.410783,149.18344 981.306152,146.765354 979.828411,143.944212 C978.35067,141.123069 977.567031,137.966124 977.477471,134.473282 L995.478955,134.473282 C995.478955,137.607884 996.710388,140.02597 999.17329,141.727611 C1001.63619,143.429252 1004.83792,144.28006 1008.77856,144.28006 C1012.09228,144.28006 1014.93577,143.765098 1017.30911,142.735157 C1019.68246,141.705216 1020.86911,140.115549 1020.86911,137.966107 C1020.86911,135.547985 1019.99591,133.80159 1018.24949,132.726869 C1016.50307,131.652148 1013.8387,130.711782 1010.25629,129.905741 C1003.80797,128.47278 998.613562,126.972671 994.672919,125.40537 C990.732276,123.838069 987.664889,122.114063 985.470668,120.233302 C983.276446,118.35254 981.798727,116.29269 981.037466,114.053688 C980.276206,111.814686 979.895581,109.307042 979.895581,106.53068 C979.895581,104.022998 980.410544,101.649691 981.440485,99.4106896 C982.470425,97.1716879 984.104872,95.2013959 986.343874,93.4997546 C988.582876,91.7981132 991.493534,90.4323426 995.075937,89.4024018 C998.65834,88.372461 1003.04672,87.8574984 1008.2412,87.8574984 C1017.73457,87.8574984 1024.67537,89.783011 1029.06381,93.634094 C1033.45226,97.485177 1035.87034,102.813921 1036.31814,109.620487 L1019.52571,109.620487 Z" id="me" fill-opacity="0.7" fill="#FFFFFF"></path>
        </g>
    </g>
</svg>