<?xml version="1.0" encoding="UTF-8"?>
<svg width="1009px" height="211px" viewBox="0 0 1009 211" version="1.1" xmlns="http://www.w3.org/2000/svg" xmlns:xlink="http://www.w3.org/1999/xlink">
    <!-- Generator: Sketch 51.1 (57501) - http://www.bohemiancoding.com/sketch -->
    <title>splash</title>
    <desc>Created with Sketch.</desc>
    <defs>
        <linearGradient x1="140.336629%" y1="146.517095%" x2="27.9639786%" y2="39.3100712%" id="linearGradient-1">
            <stop stop-color="#FF8F77" offset="0%"></stop>
            <stop stop-color="#F25189" offset="100%"></stop>
        </linearGradient>
        <linearGradient x1="-9.33000736%" y1="146.060383%" x2="61.2975106%" y2="46.0672113%" id="linearGradient-2">
            <stop stop-color="#FF8F77" offset="0%"></stop>
            <stop stop-color="#F25189" offset="100%"></stop>
        </linearGradient>
        <linearGradient x1="105.48163%" y1="123.884537%" x2="61.2975106%" y2="46.0672113%" id="linearGradient-3">
            <stop stop-color="#FF8F77" offset="0%"></stop>
            <stop stop-color="#F25189" offset="100%"></stop>
        </linearGradient>
        <linearGradient x1="-34.8739435%" y1="130.77865%" x2="61.2975106%" y2="46.0672113%" id="linearGradient-4">
            <stop stop-color="#FF8F77" offset="0%"></stop>
            <stop stop-color="#F25189" offset="100%"></stop>
        </linearGradient>
    </defs>
    <g id="Symbols" stroke="none" stroke-width="1" fill="none" fill-rule="evenodd">
        <g id="Splash-Dark" transform="translate(-39.000000, -41.000000)">
            <g id="splash" transform="translate(9.000000, 21.000000)">
                <g id="Logo">
                    <g id="shards" transform="translate(122.115894, 126.416926) rotate(-3.000000) translate(-122.115894, -126.416926) translate(31.896596, 21.185201)">
                        <path d="M70.5732282,179.610307 L6.1137079,108.486259 C3.23601276,99.4537655 1.31542056,89.8779227 0.500487198,79.8989783 C0.345535777,78.0015819 0.232310337,76.1110761 0.159961509,74.2286007 L71.8596371,180.089284 C71.4296837,179.932725 71.0008725,179.773058 70.5732267,179.610307 Z" id="shard-1" fill="url(#linearGradient-1)"></path>
                        <path d="M168.493666,157.084603 L101.968236,209.45967 L180.380793,122.478447 C180.072314,124.065186 179.733443,125.653752 179.363759,127.243368 C176.888846,137.885337 173.193516,147.884045 168.493659,157.084609 Z" id="shard-4" fill="url(#linearGradient-2)"></path>
                        <path d="M96.1306892,208.648113 L4.55172906,64.3103687 C27.0971526,31.8713643 61.6943943,8.31338335 101.927526,0.00202764741 C96.6145053,38.0549512 93.5245642,83.5679172 93.5245642,132.470045 C93.5245642,159.085428 94.4398572,184.696885 96.1306892,208.648113 Z" id="shard-2" fill="url(#linearGradient-3)"></path>
                        <path d="M98.1175086,210.257911 C100.101464,197.762718 101.918644,184.916773 103.542186,171.797787 C109.212094,125.982268 111.778531,82.8310347 111.544564,45.830379 C140.451026,60.7020278 163.793102,84.0925425 178.63536,112.27421 L98.1175086,210.257911 Z" id="shard-3" fill="url(#linearGradient-4)"></path>
                    </g>
                </g>
                <path d="M269.676,203.876 C269.988002,203.876 270.245999,203.983999 270.45,204.2 C270.654001,204.416001 270.756,204.667999 270.756,204.956 C270.756,205.268002 270.654001,205.519999 270.45,205.712 C270.245999,205.904001 269.988002,206 269.676,206 L256.464,206 C256.151998,206 255.894001,205.898001 255.69,205.694 C255.485999,205.489999 255.384,205.232002 255.384,204.92 L255.384,181.88 C255.384,181.567998 255.485999,181.310001 255.69,181.106 C255.894001,180.901999 256.151998,180.8 256.464,180.8 L269.676,180.8 C269.988002,180.8 270.245999,180.901999 270.45,181.106 C270.654001,181.310001 270.756,181.567998 270.756,181.88 C270.756,182.192002 270.654001,182.443999 270.45,182.636 C270.245999,182.828001 269.988002,182.924 269.676,182.924 L257.652,182.924 L257.652,191.96 L268.056,191.96 C268.368002,191.96 268.625999,192.061999 268.83,192.266 C269.034001,192.470001 269.136,192.727998 269.136,193.04 C269.136,193.352002 269.034001,193.603999 268.83,193.796 C268.625999,193.988001 268.368002,194.084 268.056,194.084 L257.652,194.084 L257.652,203.876 L269.676,203.876 Z M284.7135,187.172 C286.945511,187.172 288.583495,187.825993 289.6275,189.134 C290.671505,190.442007 291.1935,192.175989 291.1935,194.336 L291.1935,204.92 C291.1935,205.232002 291.085501,205.489999 290.8695,205.694 C290.653499,205.898001 290.401501,206 290.1135,206 C289.801498,206 289.543501,205.898001 289.3395,205.694 C289.135499,205.489999 289.0335,205.232002 289.0335,204.92 L289.0335,194.444 C289.0335,192.883992 288.643504,191.618005 287.8635,190.646 C287.083496,189.673995 285.877508,189.188 284.2455,189.188 C283.213495,189.188 282.235504,189.427998 281.3115,189.908 C280.387495,190.388002 279.637503,191.029996 279.0615,191.834 C278.485497,192.638004 278.1975,193.507995 278.1975,194.444 L278.1975,204.92 C278.1975,205.232002 278.095501,205.489999 277.8915,205.694 C277.687499,205.898001 277.429501,206 277.1175,206 C276.805498,206 276.547501,205.898001 276.3435,205.694 C276.139499,205.489999 276.0375,205.232002 276.0375,204.92 L276.0375,188.792 C276.0375,188.479998 276.139499,188.222001 276.3435,188.018 C276.547501,187.813999 276.805498,187.712 277.1175,187.712 C277.429501,187.712 277.687499,187.813999 277.8915,188.018 C278.095501,188.222001 278.1975,188.479998 278.1975,188.792 L278.1975,190.772 C278.845503,189.739995 279.775494,188.882003 280.9875,188.198 C282.199506,187.513997 283.441493,187.172 284.7135,187.172 Z M313.143,187.604 C313.455001,187.604 313.712999,187.705999 313.917,187.91 C314.121001,188.114001 314.223,188.383998 314.223,188.72 L314.223,204.308 C314.223,206.180009 313.833004,207.781993 313.053,209.114 C312.272996,210.446007 311.205006,211.459997 309.849,212.156 C308.492993,212.852003 306.939008,213.2 305.187,213.2 C304.346995,213.2 303.465004,213.092001 302.541,212.876 C301.616995,212.659999 300.825003,212.384002 300.165,212.048 C299.504996,211.711998 299.127,211.364002 299.031,211.004 C298.862999,210.835999 298.779,210.644001 298.779,210.428 C298.779,210.187999 298.886999,209.996001 299.103,209.852 C299.199,209.78 299.318999,209.744 299.463,209.744 C299.607,209.744 299.882998,209.827999 300.291,209.996 L301.047,210.32 C302.535007,210.896003 303.926993,211.184 305.223,211.184 C307.35901,211.184 309.032994,210.578006 310.245,209.366 C311.457006,208.153994 312.063,206.51601 312.063,204.452 L312.063,202.22 C311.462997,203.516006 310.515006,204.529996 309.219,205.262 C307.922993,205.994004 306.567007,206.36 305.151,206.36 C303.494991,206.36 302.001006,205.946004 300.669,205.118 C299.336993,204.289996 298.287003,203.144007 297.519,201.68 C296.750996,200.215993 296.367,198.572009 296.367,196.748 C296.367,194.947991 296.750996,193.316007 297.519,191.852 C298.287003,190.387993 299.336993,189.242004 300.669,188.414 C302.001006,187.585996 303.482991,187.172 305.115,187.172 C306.627007,187.172 308.012993,187.549996 309.273,188.306 C310.533006,189.062004 311.462997,189.967995 312.063,191.024 L312.063,188.72 C312.063,188.407998 312.164999,188.144001 312.369,187.928 C312.573001,187.711999 312.830998,187.604 313.143,187.604 Z M305.331,204.344 C306.651006,204.344 307.832994,204.026003 308.877,203.39 C309.921005,202.753997 310.736997,201.854006 311.325,200.69 C311.913003,199.525994 312.207,198.212007 312.207,196.748 C312.207,195.283993 311.913003,193.976006 311.325,192.824 C310.736997,191.671994 309.921005,190.778003 308.877,190.142 C307.832994,189.505997 306.651006,189.188 305.331,189.188 C304.034993,189.188 302.865005,189.517997 301.821,190.178 C300.776994,190.838003 299.961003,191.743994 299.373,192.896 C298.784997,194.048006 298.491,195.331993 298.491,196.748 C298.491,198.188007 298.784997,199.483994 299.373,200.636 C299.961003,201.788006 300.776994,202.693997 301.821,203.354 C302.865005,204.014003 304.034993,204.344 305.331,204.344 Z M322.744499,204.92 C322.744499,205.232002 322.6425,205.489999 322.438499,205.694 C322.234498,205.898001 321.976501,206 321.664499,206 C321.352498,206 321.0945,205.898001 320.890499,205.694 C320.686498,205.489999 320.584499,205.232002 320.584499,204.92 L320.584499,188.36 C320.584499,188.047998 320.686498,187.790001 320.890499,187.586 C321.0945,187.381999 321.352498,187.28 321.664499,187.28 C321.976501,187.28 322.234498,187.381999 322.438499,187.586 C322.6425,187.790001 322.744499,188.047998 322.744499,188.36 L322.744499,204.92 Z M321.664499,184.868 C321.184497,184.868 320.812501,184.754001 320.548499,184.526 C320.284498,184.297999 320.152499,183.968002 320.152499,183.536 L320.152499,183.176 C320.152499,182.743998 320.290498,182.414001 320.566499,182.186 C320.842501,181.957999 321.220497,181.844 321.700499,181.844 C322.660504,181.844 323.140499,182.287996 323.140499,183.176 L323.140499,183.536 C323.140499,183.968002 323.014501,184.297999 322.762499,184.526 C322.510498,184.754001 322.144502,184.868 321.664499,184.868 Z M337.781999,187.172 C340.01401,187.172 341.651994,187.825993 342.695999,189.134 C343.740004,190.442007 344.261999,192.175989 344.261999,194.336 L344.261999,204.92 C344.261999,205.232002 344.154,205.489999 343.937999,205.694 C343.721998,205.898001 343.470001,206 343.181999,206 C342.869998,206 342.612,205.898001 342.407999,205.694 C342.203998,205.489999 342.101999,205.232002 342.101999,204.92 L342.101999,194.444 C342.101999,192.883992 341.712003,191.618005 340.931999,190.646 C340.151995,189.673995 338.946007,189.188 337.313999,189.188 C336.281994,189.188 335.304004,189.427998 334.379999,189.908 C333.455995,190.388002 332.706002,191.029996 332.129999,191.834 C331.553996,192.638004 331.265999,193.507995 331.265999,194.444 L331.265999,204.92 C331.265999,205.232002 331.164,205.489999 330.959999,205.694 C330.755998,205.898001 330.498001,206 330.185999,206 C329.873998,206 329.616,205.898001 329.411999,205.694 C329.207998,205.489999 329.105999,205.232002 329.105999,204.92 L329.105999,188.792 C329.105999,188.479998 329.207998,188.222001 329.411999,188.018 C329.616,187.813999 329.873998,187.712 330.185999,187.712 C330.498001,187.712 330.755998,187.813999 330.959999,188.018 C331.164,188.222001 331.265999,188.479998 331.265999,188.792 L331.265999,190.772 C331.914002,189.739995 332.843993,188.882003 334.055999,188.198 C335.268005,187.513997 336.509993,187.172 337.781999,187.172 Z M366.211499,195.74 C366.211499,196.028001 366.1035,196.273999 365.887499,196.478 C365.671498,196.682001 365.4195,196.784 365.131499,196.784 L351.523499,196.784 C351.523499,198.224007 351.817496,199.513994 352.405499,200.654 C352.993502,201.794006 353.833494,202.693997 354.925499,203.354 C356.017504,204.014003 357.307492,204.344 358.795499,204.344 C359.947505,204.344 360.979494,204.104002 361.891499,203.624 C362.803504,203.143998 363.535496,202.532004 364.087499,201.788 C364.3515,201.571999 364.603498,201.464 364.843499,201.464 C365.0835,201.464 365.299498,201.559999 365.491499,201.752 C365.6835,201.944001 365.779499,202.159999 365.779499,202.4 C365.779499,202.664001 365.6595,202.915999 365.419499,203.156 C364.651495,204.092005 363.685505,204.859997 362.521499,205.46 C361.357493,206.060003 360.127505,206.36 358.831499,206.36 C356.98349,206.36 355.351506,205.964004 353.935499,205.172 C352.519492,204.379996 351.415503,203.270007 350.623499,201.842 C349.831495,200.413993 349.435499,198.764009 349.435499,196.892 C349.435499,194.92399 349.825495,193.202007 350.605499,191.726 C351.385503,190.249993 352.423493,189.122004 353.719499,188.342 C355.015505,187.561996 356.395492,187.172 357.859499,187.172 C359.299506,187.172 360.649493,187.507997 361.909499,188.18 C363.169505,188.852003 364.195495,189.835994 364.987499,191.132 C365.779503,192.428006 366.187499,193.963991 366.211499,195.74 Z M357.859499,189.26 C356.467492,189.26 355.177505,189.739995 353.989499,190.7 C352.801493,191.660005 352.039501,193.039991 351.703499,194.84 L363.979499,194.84 L363.979499,194.552 C363.859498,193.471995 363.499502,192.530004 362.899499,191.726 C362.299496,190.921996 361.549504,190.310002 360.649499,189.89 C359.749495,189.469998 358.819504,189.26 357.859499,189.26 Z M386.972999,195.74 C386.972999,196.028001 386.865,196.273999 386.648999,196.478 C386.432998,196.682001 386.181,196.784 385.892999,196.784 L372.284999,196.784 C372.284999,198.224007 372.578996,199.513994 373.166999,200.654 C373.755002,201.794006 374.594993,202.693997 375.686999,203.354 C376.779004,204.014003 378.068991,204.344 379.556999,204.344 C380.709005,204.344 381.740994,204.104002 382.652999,203.624 C383.565003,203.143998 384.296996,202.532004 384.848999,201.788 C385.113,201.571999 385.364998,201.464 385.604999,201.464 C385.845,201.464 386.060998,201.559999 386.252999,201.752 C386.445,201.944001 386.540999,202.159999 386.540999,202.4 C386.540999,202.664001 386.421,202.915999 386.180999,203.156 C385.412995,204.092005 384.447005,204.859997 383.282999,205.46 C382.118993,206.060003 380.889005,206.36 379.592999,206.36 C377.74499,206.36 376.113006,205.964004 374.696999,205.172 C373.280992,204.379996 372.177003,203.270007 371.384999,201.842 C370.592995,200.413993 370.196999,198.764009 370.196999,196.892 C370.196999,194.92399 370.586995,193.202007 371.366999,191.726 C372.147003,190.249993 373.184992,189.122004 374.480999,188.342 C375.777005,187.561996 377.156991,187.172 378.620999,187.172 C380.061006,187.172 381.410993,187.507997 382.670999,188.18 C383.931005,188.852003 384.956995,189.835994 385.748999,191.132 C386.541003,192.428006 386.948999,193.963991 386.972999,195.74 Z M378.620999,189.26 C377.228992,189.26 375.939005,189.739995 374.750999,190.7 C373.562993,191.660005 372.801,193.039991 372.464999,194.84 L384.740999,194.84 L384.740999,194.552 C384.620998,193.471995 384.261002,192.530004 383.660999,191.726 C383.060996,190.921996 382.311003,190.310002 381.410999,189.89 C380.510994,189.469998 379.581004,189.26 378.620999,189.26 Z M400.786499,187.172 C401.266501,187.172 401.698497,187.267999 402.082499,187.46 C402.466501,187.652001 402.658499,187.939998 402.658499,188.324 C402.658499,188.660002 402.5625,188.929999 402.370499,189.134 C402.178498,189.338001 401.9505,189.44 401.686499,189.44 C401.566498,189.44 401.3325,189.380001 400.984499,189.26 C400.636497,189.139999 400.3065,189.08 399.994499,189.08 C399.106494,189.08 398.224503,189.421997 397.348499,190.106 C396.472494,190.790003 395.752501,191.671995 395.188499,192.752 C394.624496,193.832005 394.342499,194.923994 394.342499,196.028 L394.342499,204.92 C394.342499,205.232002 394.2405,205.489999 394.036499,205.694 C393.832498,205.898001 393.5745,206 393.262499,206 C392.950497,206 392.6925,205.898001 392.488499,205.694 C392.284498,205.489999 392.182499,205.232002 392.182499,204.92 L392.182499,188.792 C392.182499,188.479998 392.284498,188.222001 392.488499,188.018 C392.6925,187.813999 392.950497,187.712 393.262499,187.712 C393.5745,187.712 393.832498,187.813999 394.036499,188.018 C394.2405,188.222001 394.342499,188.479998 394.342499,188.792 L394.342499,191.96 C394.894501,190.591993 395.728493,189.458004 396.844499,188.558 C397.960504,187.657995 399.274491,187.196 400.786499,187.172 Z M409.559998,205.892 C409.559998,206.564003 409.386,207.241997 409.037998,207.926 C408.689997,208.610003 408.252001,209.173998 407.723998,209.618 C407.195996,210.062002 406.680001,210.284 406.175998,210.284 C405.911997,210.284 405.689999,210.218001 405.509998,210.086 C405.329997,209.953999 405.239998,209.756001 405.239998,209.492 C405.239998,209.251999 405.299998,209.084 405.419998,208.988 C405.539999,208.892 405.725997,208.808 405.977998,208.736 C406.23,208.664 406.415998,208.592 406.535998,208.52 C406.872,208.351999 407.129998,208.106002 407.309998,207.782 C407.489999,207.457998 407.579998,207.104002 407.579998,206.72 C407.579998,206.455999 407.507999,206.240001 407.363998,206.072 C407.219998,205.903999 407.028,205.82 406.787998,205.82 C406.403996,205.82 406.08,205.927999 405.815998,206.144 C405.527997,205.903999 405.383998,205.616002 405.383998,205.28 C405.383998,204.847998 405.599996,204.470002 406.031998,204.146 C406.464001,203.821998 406.931996,203.66 407.435998,203.66 C408.060002,203.66 408.569996,203.857998 408.965998,204.254 C409.362,204.650002 409.559998,205.195997 409.559998,205.892 Z M431.498998,181.412 C430.730994,181.412 430.137,181.663997 429.716998,182.168 C429.296996,182.672003 429.086998,183.367996 429.086998,184.256 L429.086998,187.964 L433.118998,187.964 C433.382999,187.964 433.616997,188.059999 433.820998,188.252 C434.024999,188.444001 434.126998,188.683999 434.126998,188.972 C434.126998,189.260001 434.024999,189.499999 433.820998,189.692 C433.616997,189.884001 433.382999,189.98 433.118998,189.98 L429.086998,189.98 L429.086998,204.92 C429.086998,205.232002 428.984999,205.489999 428.780998,205.694 C428.576997,205.898001 428.319,206 428.006998,206 C427.694996,206 427.436999,205.898001 427.232998,205.694 C427.028997,205.489999 426.926998,205.232002 426.926998,204.92 L426.926998,189.98 L424.298998,189.98 C424.010997,189.98 423.770999,189.878001 423.578998,189.674 C423.386997,189.469999 423.290998,189.236001 423.290998,188.972 C423.290998,188.659998 423.386997,188.414001 423.578998,188.234 C423.770999,188.053999 424.010997,187.964 424.298998,187.964 L426.926998,187.964 L426.926998,184.256 C426.926998,182.743992 427.364994,181.574004 428.240998,180.746 C429.117002,179.917996 430.286991,179.504 431.750998,179.504 C432.423001,179.504 433.046995,179.605999 433.622998,179.81 C434.199001,180.014001 434.486998,180.343998 434.486998,180.8 C434.486998,181.088001 434.390999,181.327999 434.198998,181.52 C434.006997,181.712001 433.790999,181.808 433.550998,181.808 C433.334997,181.808 433.071,181.748001 432.758998,181.628 C432.230995,181.483999 431.811,181.412 431.498998,181.412 Z M447.148498,187.172 C447.6285,187.172 448.060496,187.267999 448.444498,187.46 C448.8285,187.652001 449.020498,187.939998 449.020498,188.324 C449.020498,188.660002 448.924499,188.929999 448.732498,189.134 C448.540497,189.338001 448.312499,189.44 448.048498,189.44 C447.928497,189.44 447.6945,189.380001 447.346498,189.26 C446.998496,189.139999 446.668499,189.08 446.356498,189.08 C445.468493,189.08 444.586502,189.421997 443.710498,190.106 C442.834493,190.790003 442.114501,191.671995 441.550498,192.752 C440.986495,193.832005 440.704498,194.923994 440.704498,196.028 L440.704498,204.92 C440.704498,205.232002 440.602499,205.489999 440.398498,205.694 C440.194497,205.898001 439.936499,206 439.624498,206 C439.312496,206 439.054499,205.898001 438.850498,205.694 C438.646497,205.489999 438.544498,205.232002 438.544498,204.92 L438.544498,188.792 C438.544498,188.479998 438.646497,188.222001 438.850498,188.018 C439.054499,187.813999 439.312496,187.712 439.624498,187.712 C439.936499,187.712 440.194497,187.813999 440.398498,188.018 C440.602499,188.222001 440.704498,188.479998 440.704498,188.792 L440.704498,191.96 C441.256501,190.591993 442.090492,189.458004 443.206498,188.558 C444.322503,187.657995 445.63649,187.196 447.148498,187.172 Z M469.349998,196.784 C469.349998,198.584009 468.954002,200.215993 468.161998,201.68 C467.369994,203.144007 466.278005,204.289996 464.885998,205.118 C463.493991,205.946004 461.946006,206.36 460.241998,206.36 C458.537989,206.36 456.990005,205.946004 455.597998,205.118 C454.205991,204.289996 453.114002,203.144007 452.321998,201.68 C451.529994,200.215993 451.133998,198.584009 451.133998,196.784 C451.133998,194.983991 451.529994,193.352007 452.321998,191.888 C453.114002,190.423993 454.205991,189.272004 455.597998,188.432 C456.990005,187.591996 458.537989,187.172 460.241998,187.172 C461.946006,187.172 463.493991,187.591996 464.885998,188.432 C466.278005,189.272004 467.369994,190.423993 468.161998,191.888 C468.954002,193.352007 469.349998,194.983991 469.349998,196.784 Z M467.189998,196.784 C467.189998,195.343993 466.890001,194.048006 466.289998,192.896 C465.689995,191.743994 464.856003,190.838003 463.787998,190.178 C462.719992,189.517997 461.538004,189.188 460.241998,189.188 C458.945991,189.188 457.770003,189.517997 456.713998,190.178 C455.657992,190.838003 454.824001,191.743994 454.211998,192.896 C453.599995,194.048006 453.293998,195.343993 453.293998,196.784 C453.293998,198.200007 453.599995,199.483994 454.211998,200.636 C454.824001,201.788006 455.657992,202.693997 456.713998,203.354 C457.770003,204.014003 458.945991,204.344 460.241998,204.344 C461.538004,204.344 462.719992,204.020003 463.787998,203.372 C464.856003,202.723997 465.689995,201.824006 466.289998,200.672 C466.890001,199.519994 467.189998,198.224007 467.189998,196.784 Z M483.199497,187.172 C485.431509,187.172 487.069492,187.825993 488.113497,189.134 C489.157503,190.442007 489.679497,192.175989 489.679497,194.336 L489.679497,204.92 C489.679497,205.232002 489.571498,205.489999 489.355497,205.694 C489.139496,205.898001 488.887499,206 488.599497,206 C488.287496,206 488.029498,205.898001 487.825497,205.694 C487.621496,205.489999 487.519497,205.232002 487.519497,204.92 L487.519497,194.444 C487.519497,192.883992 487.129501,191.618005 486.349497,190.646 C485.569494,189.673995 484.363506,189.188 482.731497,189.188 C481.699492,189.188 480.721502,189.427998 479.797497,189.908 C478.873493,190.388002 478.1235,191.029996 477.547497,191.834 C476.971495,192.638004 476.683497,193.507995 476.683497,194.444 L476.683497,204.92 C476.683497,205.232002 476.581498,205.489999 476.377497,205.694 C476.173496,205.898001 475.915499,206 475.603497,206 C475.291496,206 475.033498,205.898001 474.829497,205.694 C474.625496,205.489999 474.523497,205.232002 474.523497,204.92 L474.523497,188.792 C474.523497,188.479998 474.625496,188.222001 474.829497,188.018 C475.033498,187.813999 475.291496,187.712 475.603497,187.712 C475.915499,187.712 476.173496,187.813999 476.377497,188.018 C476.581498,188.222001 476.683497,188.479998 476.683497,188.792 L476.683497,190.772 C477.331501,189.739995 478.261491,188.882003 479.473497,188.198 C480.685503,187.513997 481.927491,187.172 483.199497,187.172 Z M499.676997,189.692 L499.676997,201.752 C499.676997,202.664005 499.844996,203.281998 500.180997,203.606 C500.516999,203.930002 500.960994,204.092 501.512997,204.092 C501.656998,204.092 501.836996,204.062 502.052997,204.002 C502.268998,203.942 502.436997,203.912 502.556997,203.912 C502.772998,203.912 502.958996,204.001999 503.114997,204.182 C503.270998,204.362001 503.348997,204.571999 503.348997,204.812 C503.348997,205.148002 503.156999,205.429999 502.772997,205.658 C502.388995,205.886001 501.933,206 501.404997,206 C500.756994,206 500.181,205.940001 499.676997,205.82 C499.172995,205.699999 498.687,205.340003 498.218997,204.74 C497.750995,204.139997 497.516997,203.180007 497.516997,201.86 L497.516997,189.692 L494.888997,189.692 C494.600996,189.692 494.354998,189.596001 494.150997,189.404 C493.946996,189.211999 493.844997,188.972001 493.844997,188.684 C493.844997,188.395999 493.946996,188.156001 494.150997,187.964 C494.354998,187.771999 494.600996,187.676 494.888997,187.676 L497.516997,187.676 L497.516997,183.68 C497.516997,183.367998 497.618996,183.110001 497.822997,182.906 C498.026998,182.701999 498.284996,182.6 498.596997,182.6 C498.908999,182.6 499.166996,182.701999 499.370997,182.906 C499.574998,183.110001 499.676997,183.367998 499.676997,183.68 L499.676997,187.676 L503.276997,187.676 C503.540999,187.676 503.774996,187.783999 503.978997,188 C504.182998,188.216001 504.284997,188.455999 504.284997,188.72 C504.284997,189.008001 504.188998,189.241999 503.996997,189.422 C503.804996,189.602001 503.564999,189.692 503.276997,189.692 L499.676997,189.692 Z M524.398497,195.74 C524.398497,196.028001 524.290498,196.273999 524.074497,196.478 C523.858496,196.682001 523.606498,196.784 523.318497,196.784 L509.710497,196.784 C509.710497,198.224007 510.004494,199.513994 510.592497,200.654 C511.1805,201.794006 512.020492,202.693997 513.112497,203.354 C514.204502,204.014003 515.49449,204.344 516.982497,204.344 C518.134503,204.344 519.166492,204.104002 520.078497,203.624 C520.990502,203.143998 521.722494,202.532004 522.274497,201.788 C522.538498,201.571999 522.790496,201.464 523.030497,201.464 C523.270498,201.464 523.486496,201.559999 523.678497,201.752 C523.870498,201.944001 523.966497,202.159999 523.966497,202.4 C523.966497,202.664001 523.846498,202.915999 523.606497,203.156 C522.838493,204.092005 521.872503,204.859997 520.708497,205.46 C519.544491,206.060003 518.314503,206.36 517.018497,206.36 C515.170488,206.36 513.538504,205.964004 512.122497,205.172 C510.70649,204.379996 509.602501,203.270007 508.810497,201.842 C508.018493,200.413993 507.622497,198.764009 507.622497,196.892 C507.622497,194.92399 508.012493,193.202007 508.792497,191.726 C509.572501,190.249993 510.610491,189.122004 511.906497,188.342 C513.202503,187.561996 514.58249,187.172 516.046497,187.172 C517.486504,187.172 518.836491,187.507997 520.096497,188.18 C521.356503,188.852003 522.382493,189.835994 523.174497,191.132 C523.966501,192.428006 524.374497,193.963991 524.398497,195.74 Z M516.046497,189.26 C514.65449,189.26 513.364503,189.739995 512.176497,190.7 C510.988491,191.660005 510.226499,193.039991 509.890497,194.84 L522.166497,194.84 L522.166497,194.552 C522.046496,193.471995 521.6865,192.530004 521.086497,191.726 C520.486494,190.921996 519.736502,190.310002 518.836497,189.89 C517.936492,189.469998 517.006502,189.26 516.046497,189.26 Z M538.283997,187.172 C540.516008,187.172 542.153992,187.825993 543.197997,189.134 C544.242002,190.442007 544.763997,192.175989 544.763997,194.336 L544.763997,204.92 C544.763997,205.232002 544.655998,205.489999 544.439997,205.694 C544.223996,205.898001 543.971998,206 543.683997,206 C543.371995,206 543.113998,205.898001 542.909997,205.694 C542.705996,205.489999 542.603997,205.232002 542.603997,204.92 L542.603997,194.444 C542.603997,192.883992 542.214001,191.618005 541.433997,190.646 C540.653993,189.673995 539.448005,189.188 537.815997,189.188 C536.783992,189.188 535.806001,189.427998 534.881997,189.908 C533.957992,190.388002 533.208,191.029996 532.631997,191.834 C532.055994,192.638004 531.767997,193.507995 531.767997,194.444 L531.767997,204.92 C531.767997,205.232002 531.665998,205.489999 531.461997,205.694 C531.257996,205.898001 530.999998,206 530.687997,206 C530.375995,206 530.117998,205.898001 529.913997,205.694 C529.709996,205.489999 529.607997,205.232002 529.607997,204.92 L529.607997,188.792 C529.607997,188.479998 529.709996,188.222001 529.913997,188.018 C530.117998,187.813999 530.375995,187.712 530.687997,187.712 C530.999998,187.712 531.257996,187.813999 531.461997,188.018 C531.665998,188.222001 531.767997,188.479998 531.767997,188.792 L531.767997,190.772 C532.416,189.739995 533.345991,188.882003 534.557997,188.198 C535.770003,187.513997 537.01199,187.172 538.283997,187.172 Z M566.101497,179.36 C566.413498,179.36 566.671496,179.461999 566.875497,179.666 C567.079498,179.870001 567.181497,180.127998 567.181497,180.44 L567.181497,204.92 C567.181497,205.232002 567.079498,205.489999 566.875497,205.694 C566.671496,205.898001 566.413498,206 566.101497,206 C565.789495,206 565.531498,205.898001 565.327497,205.694 C565.123496,205.489999 565.021497,205.232002 565.021497,204.92 L565.021497,202.4 C564.421494,203.504006 563.527503,204.439996 562.339497,205.208 C561.151491,205.976004 559.837504,206.36 558.397497,206.36 C556.813489,206.36 555.379503,205.946004 554.095497,205.118 C552.81149,204.289996 551.7975,203.144007 551.053497,201.68 C550.309493,200.215993 549.937497,198.572009 549.937497,196.748 C549.937497,194.947991 550.309493,193.316007 551.053497,191.852 C551.7975,190.387993 552.81149,189.242004 554.095497,188.414 C555.379503,187.585996 556.801489,187.172 558.361497,187.172 C559.777504,187.172 561.085491,187.525996 562.285497,188.234 C563.485503,188.942004 564.397493,189.859994 565.021497,190.988 L565.021497,180.44 C565.021497,180.127998 565.123496,179.870001 565.327497,179.666 C565.531498,179.461999 565.789495,179.36 566.101497,179.36 Z M558.613497,204.344 C559.861503,204.344 560.983492,204.020003 561.979497,203.372 C562.975502,202.723997 563.755494,201.818006 564.319497,200.654 C564.883499,199.489994 565.165497,198.188007 565.165497,196.748 C565.165497,195.331993 564.883499,194.048006 564.319497,192.896 C563.755494,191.743994 562.975502,190.838003 561.979497,190.178 C560.983492,189.517997 559.861503,189.188 558.613497,189.188 C557.36549,189.188 556.243502,189.517997 555.247497,190.178 C554.251492,190.838003 553.471499,191.743994 552.907497,192.896 C552.343494,194.048006 552.061497,195.331993 552.061497,196.748 C552.061497,198.188007 552.343494,199.483994 552.907497,200.636 C553.471499,201.788006 554.251492,202.693997 555.247497,203.354 C556.243502,204.014003 557.36549,204.344 558.613497,204.344 Z M599.092496,179.36 C599.404498,179.36 599.662495,179.461999 599.866496,179.666 C600.070497,179.870001 600.172496,180.127998 600.172496,180.44 L600.172496,204.92 C600.172496,205.232002 600.070497,205.489999 599.866496,205.694 C599.662495,205.898001 599.404498,206 599.092496,206 C598.780495,206 598.522497,205.898001 598.318496,205.694 C598.114495,205.489999 598.012496,205.232002 598.012496,204.92 L598.012496,202.4 C597.412493,203.504006 596.518502,204.439996 595.330496,205.208 C594.14249,205.976004 592.828503,206.36 591.388496,206.36 C589.804488,206.36 588.370503,205.946004 587.086496,205.118 C585.80249,204.289996 584.7885,203.144007 584.044496,201.68 C583.300492,200.215993 582.928496,198.572009 582.928496,196.748 C582.928496,194.947991 583.300492,193.316007 584.044496,191.852 C584.7885,190.387993 585.80249,189.242004 587.086496,188.414 C588.370503,187.585996 589.792488,187.172 591.352496,187.172 C592.768503,187.172 594.07649,187.525996 595.276496,188.234 C596.476502,188.942004 597.388493,189.859994 598.012496,190.988 L598.012496,180.44 C598.012496,180.127998 598.114495,179.870001 598.318496,179.666 C598.522497,179.461999 598.780495,179.36 599.092496,179.36 Z M591.604496,204.344 C592.852502,204.344 593.974491,204.020003 594.970496,203.372 C595.966501,202.723997 596.746493,201.818006 597.310496,200.654 C597.874499,199.489994 598.156496,198.188007 598.156496,196.748 C598.156496,195.331993 597.874499,194.048006 597.310496,192.896 C596.746493,191.743994 595.966501,190.838003 594.970496,190.178 C593.974491,189.517997 592.852502,189.188 591.604496,189.188 C590.35649,189.188 589.234501,189.517997 588.238496,190.178 C587.242491,190.838003 586.462499,191.743994 585.898496,192.896 C585.334493,194.048006 585.052496,195.331993 585.052496,196.748 C585.052496,198.188007 585.334493,199.483994 585.898496,200.636 C586.462499,201.788006 587.242491,202.693997 588.238496,203.354 C589.234501,204.014003 590.35649,204.344 591.604496,204.344 Z M622.121996,195.74 C622.121996,196.028001 622.013997,196.273999 621.797996,196.478 C621.581995,196.682001 621.329997,196.784 621.041996,196.784 L607.433996,196.784 C607.433996,198.224007 607.727993,199.513994 608.315996,200.654 C608.903999,201.794006 609.743991,202.693997 610.835996,203.354 C611.928001,204.014003 613.217989,204.344 614.705996,204.344 C615.858002,204.344 616.889991,204.104002 617.801996,203.624 C618.714001,203.143998 619.445993,202.532004 619.997996,201.788 C620.261997,201.571999 620.513995,201.464 620.753996,201.464 C620.993997,201.464 621.209995,201.559999 621.401996,201.752 C621.593997,201.944001 621.689996,202.159999 621.689996,202.4 C621.689996,202.664001 621.569997,202.915999 621.329996,203.156 C620.561992,204.092005 619.596002,204.859997 618.431996,205.46 C617.26799,206.060003 616.038002,206.36 614.741996,206.36 C612.893987,206.36 611.262003,205.964004 609.845996,205.172 C608.429989,204.379996 607.326,203.270007 606.533996,201.842 C605.741992,200.413993 605.345996,198.764009 605.345996,196.892 C605.345996,194.92399 605.735992,193.202007 606.515996,191.726 C607.296,190.249993 608.33399,189.122004 609.629996,188.342 C610.926002,187.561996 612.305989,187.172 613.769996,187.172 C615.210003,187.172 616.55999,187.507997 617.819996,188.18 C619.080002,188.852003 620.105992,189.835994 620.897996,191.132 C621.69,192.428006 622.097996,193.963991 622.121996,195.74 Z M613.769996,189.26 C612.377989,189.26 611.088002,189.739995 609.899996,190.7 C608.71199,191.660005 607.949998,193.039991 607.613996,194.84 L619.889996,194.84 L619.889996,194.552 C619.769995,193.471995 619.409999,192.530004 618.809996,191.726 C618.209993,190.921996 617.460001,190.310002 616.559996,189.89 C615.659992,189.469998 614.730001,189.26 613.769996,189.26 Z M641.047496,187.244 C641.287497,187.244 641.515495,187.327999 641.731496,187.496 C641.947497,187.664001 642.055496,187.879999 642.055496,188.144 C642.055496,188.360001 642.007496,188.563999 641.911496,188.756 L634.855496,205.316 C634.759495,205.508001 634.621497,205.669999 634.441496,205.802 C634.261495,205.934001 634.075497,206 633.883496,206 C633.643495,206.024 633.427497,205.976001 633.235496,205.856 C633.043495,205.735999 632.899496,205.556001 632.803496,205.316 L625.711496,188.756 C625.711496,188.708 625.693496,188.636 625.657496,188.54 C625.621496,188.444 625.603496,188.348 625.603496,188.252 C625.603496,187.963999 625.699495,187.718001 625.891496,187.514 C626.083497,187.309999 626.359494,187.208 626.719496,187.208 C626.935497,187.208 627.133495,187.273999 627.313496,187.406 C627.493497,187.538001 627.631495,187.711999 627.727496,187.928 L633.847496,202.508 L640.003496,187.928 C640.099496,187.711999 640.237495,187.538001 640.417496,187.406 C640.597497,187.273999 640.807495,187.22 641.047496,187.244 Z M662.312996,195.74 C662.312996,196.028001 662.204997,196.273999 661.988996,196.478 C661.772995,196.682001 661.520997,196.784 661.232996,196.784 L647.624996,196.784 C647.624996,198.224007 647.918993,199.513994 648.506996,200.654 C649.094999,201.794006 649.93499,202.693997 651.026996,203.354 C652.119001,204.014003 653.408988,204.344 654.896996,204.344 C656.049001,204.344 657.080991,204.104002 657.992996,203.624 C658.905,203.143998 659.636993,202.532004 660.188996,201.788 C660.452997,201.571999 660.704994,201.464 660.944996,201.464 C661.184997,201.464 661.400995,201.559999 661.592996,201.752 C661.784997,201.944001 661.880996,202.159999 661.880996,202.4 C661.880996,202.664001 661.760997,202.915999 661.520996,203.156 C660.752992,204.092005 659.787001,204.859997 658.622996,205.46 C657.45899,206.060003 656.229002,206.36 654.932996,206.36 C653.084986,206.36 651.453003,205.964004 650.036996,205.172 C648.620989,204.379996 647.517,203.270007 646.724996,201.842 C645.932992,200.413993 645.536996,198.764009 645.536996,196.892 C645.536996,194.92399 645.926992,193.202007 646.706996,191.726 C647.487,190.249993 648.524989,189.122004 649.820996,188.342 C651.117002,187.561996 652.496988,187.172 653.960996,187.172 C655.401003,187.172 656.750989,187.507997 658.010996,188.18 C659.271002,188.852003 660.296992,189.835994 661.088996,191.132 C661.881,192.428006 662.288995,193.963991 662.312996,195.74 Z M653.960996,189.26 C652.568989,189.26 651.279002,189.739995 650.090996,190.7 C648.90299,191.660005 648.140997,193.039991 647.804996,194.84 L660.080996,194.84 L660.080996,194.552 C659.960995,193.471995 659.600999,192.530004 659.000996,191.726 C658.400993,190.921996 657.651,190.310002 656.750996,189.89 C655.850991,189.469998 654.921,189.26 653.960996,189.26 Z M669.898495,204.92 C669.898495,205.232002 669.796496,205.489999 669.592495,205.694 C669.388494,205.898001 669.130497,206 668.818495,206 C668.506494,206 668.248496,205.898001 668.044495,205.694 C667.840494,205.489999 667.738495,205.232002 667.738495,204.92 L667.738495,180.44 C667.738495,180.127998 667.840494,179.870001 668.044495,179.666 C668.248496,179.461999 668.506494,179.36 668.818495,179.36 C669.130497,179.36 669.388494,179.461999 669.592495,179.666 C669.796496,179.870001 669.898495,180.127998 669.898495,180.44 L669.898495,204.92 Z M693.179995,196.784 C693.179995,198.584009 692.783999,200.215993 691.991995,201.68 C691.199991,203.144007 690.108002,204.289996 688.715995,205.118 C687.323988,205.946004 685.776004,206.36 684.071995,206.36 C682.367987,206.36 680.820002,205.946004 679.427995,205.118 C678.035988,204.289996 676.943999,203.144007 676.151995,201.68 C675.359991,200.215993 674.963995,198.584009 674.963995,196.784 C674.963995,194.983991 675.359991,193.352007 676.151995,191.888 C676.943999,190.423993 678.035988,189.272004 679.427995,188.432 C680.820002,187.591996 682.367987,187.172 684.071995,187.172 C685.776004,187.172 687.323988,187.591996 688.715995,188.432 C690.108002,189.272004 691.199991,190.423993 691.991995,191.888 C692.783999,193.352007 693.179995,194.983991 693.179995,196.784 Z M691.019995,196.784 C691.019995,195.343993 690.719998,194.048006 690.119995,192.896 C689.519992,191.743994 688.686001,190.838003 687.617995,190.178 C686.54999,189.517997 685.368002,189.188 684.071995,189.188 C682.775989,189.188 681.6,189.517997 680.543995,190.178 C679.48799,190.838003 678.653998,191.743994 678.041995,192.896 C677.429992,194.048006 677.123995,195.343993 677.123995,196.784 C677.123995,198.200007 677.429992,199.483994 678.041995,200.636 C678.653998,201.788006 679.48799,202.693997 680.543995,203.354 C681.6,204.014003 682.775989,204.344 684.071995,204.344 C685.368002,204.344 686.54999,204.020003 687.617995,203.372 C688.686001,202.723997 689.519992,201.824006 690.119995,200.672 C690.719998,199.519994 691.019995,198.224007 691.019995,196.784 Z M707.101495,187.46 C708.685503,187.46 710.125489,187.861996 711.421495,188.666 C712.717501,189.470004 713.731491,190.585993 714.463495,192.014 C715.195499,193.442007 715.561495,195.043991 715.561495,196.82 C715.561495,198.620009 715.195499,200.233993 714.463495,201.662 C713.731491,203.090007 712.723501,204.211996 711.439495,205.028 C710.155489,205.844004 708.721503,206.252 707.137495,206.252 C705.745488,206.252 704.467501,205.922003 703.303495,205.262 C702.139489,204.601997 701.209498,203.720006 700.513495,202.616 L700.513495,212.12 C700.513495,212.432002 700.411496,212.689999 700.207495,212.894 C700.003494,213.098001 699.745497,213.2 699.433495,213.2 C699.121493,213.2 698.863496,213.098001 698.659495,212.894 C698.455494,212.689999 698.353495,212.432002 698.353495,212.12 L698.353495,188.648 C698.353495,188.335998 698.455494,188.072001 698.659495,187.856 C698.863496,187.639999 699.121493,187.532 699.433495,187.532 C699.745497,187.532 700.003494,187.639999 700.207495,187.856 C700.411496,188.072001 700.513495,188.335998 700.513495,188.648 L700.513495,191.096 C701.137498,189.967994 702.037489,189.080003 703.213495,188.432 C704.389501,187.783997 705.685488,187.46 707.101495,187.46 Z M706.921495,204.236 C708.169501,204.236 709.29149,203.918003 710.287495,203.282 C711.2835,202.645997 712.063492,201.764006 712.627495,200.636 C713.191498,199.507994 713.473495,198.236007 713.473495,196.82 C713.473495,195.427993 713.191498,194.174006 712.627495,193.058 C712.063492,191.941994 711.2835,191.066003 710.287495,190.43 C709.29149,189.793997 708.169501,189.476 706.921495,189.476 C705.649489,189.476 704.5095,189.787997 703.501495,190.412 C702.49349,191.036003 701.713498,191.905994 701.161495,193.022 C700.609492,194.138006 700.333495,195.403993 700.333495,196.82 C700.333495,198.236007 700.609492,199.507994 701.161495,200.636 C701.713498,201.764006 702.49349,202.645997 703.501495,203.282 C704.5095,203.918003 705.649489,204.236 706.921495,204.236 Z M736.322995,195.74 C736.322995,196.028001 736.214996,196.273999 735.998995,196.478 C735.782994,196.682001 735.530996,196.784 735.242995,196.784 L721.634995,196.784 C721.634995,198.224007 721.928992,199.513994 722.516995,200.654 C723.104998,201.794006 723.944989,202.693997 725.036995,203.354 C726.129,204.014003 727.418987,204.344 728.906995,204.344 C730.059001,204.344 731.09099,204.104002 732.002995,203.624 C732.914999,203.143998 733.646992,202.532004 734.198995,201.788 C734.462996,201.571999 734.714994,201.464 734.954995,201.464 C735.194996,201.464 735.410994,201.559999 735.602995,201.752 C735.794996,201.944001 735.890995,202.159999 735.890995,202.4 C735.890995,202.664001 735.770996,202.915999 735.530995,203.156 C734.762991,204.092005 733.797001,204.859997 732.632995,205.46 C731.468989,206.060003 730.239001,206.36 728.942995,206.36 C727.094986,206.36 725.463002,205.964004 724.046995,205.172 C722.630988,204.379996 721.526999,203.270007 720.734995,201.842 C719.942991,200.413993 719.546995,198.764009 719.546995,196.892 C719.546995,194.92399 719.936991,193.202007 720.716995,191.726 C721.496999,190.249993 722.534988,189.122004 723.830995,188.342 C725.127001,187.561996 726.506987,187.172 727.970995,187.172 C729.411002,187.172 730.760989,187.507997 732.020995,188.18 C733.281001,188.852003 734.306991,189.835994 735.098995,191.132 C735.890999,192.428006 736.298995,193.963991 736.322995,195.74 Z M727.970995,189.26 C726.578988,189.26 725.289001,189.739995 724.100995,190.7 C722.912989,191.660005 722.150996,193.039991 721.814995,194.84 L734.090995,194.84 L734.090995,194.552 C733.970994,193.471995 733.610998,192.530004 733.010995,191.726 C732.410992,190.921996 731.660999,190.310002 730.760995,189.89 C729.86099,189.469998 728.931,189.26 727.970995,189.26 Z M750.136495,187.172 C750.616497,187.172 751.048493,187.267999 751.432495,187.46 C751.816497,187.652001 752.008495,187.939998 752.008495,188.324 C752.008495,188.660002 751.912496,188.929999 751.720495,189.134 C751.528494,189.338001 751.300496,189.44 751.036495,189.44 C750.916494,189.44 750.682496,189.380001 750.334495,189.26 C749.986493,189.139999 749.656496,189.08 749.344495,189.08 C748.45649,189.08 747.574499,189.421997 746.698495,190.106 C745.82249,190.790003 745.102497,191.671995 744.538495,192.752 C743.974492,193.832005 743.692495,194.923994 743.692495,196.028 L743.692495,204.92 C743.692495,205.232002 743.590496,205.489999 743.386495,205.694 C743.182494,205.898001 742.924496,206 742.612495,206 C742.300493,206 742.042496,205.898001 741.838495,205.694 C741.634494,205.489999 741.532495,205.232002 741.532495,204.92 L741.532495,188.792 C741.532495,188.479998 741.634494,188.222001 741.838495,188.018 C742.042496,187.813999 742.300493,187.712 742.612495,187.712 C742.924496,187.712 743.182494,187.813999 743.386495,188.018 C743.590496,188.222001 743.692495,188.479998 743.692495,188.792 L743.692495,191.96 C744.244497,190.591993 745.078489,189.458004 746.194495,188.558 C747.3105,187.657995 748.624487,187.196 750.136495,187.172 Z" id="Engineer,-frontend-d" fill-opacity="0.7" fill="#FFFFFF"></path>
                <path d="M273.135823,81.9465633 L273.135823,105.724643 L296.510885,105.724643 C301.526249,105.724643 305.063818,104.605159 307.1237,102.366157 C309.183582,100.127155 310.213507,97.3060555 310.213507,93.9027729 C310.213507,90.4099301 309.205971,87.5440509 307.19087,85.3050491 C305.175768,83.0660474 301.839706,81.9465633 297.182582,81.9465633 L273.135823,81.9465633 Z M306.989361,155.698912 L306.989361,132.726869 C306.989361,128.427986 306.004215,125.360599 304.033893,123.524618 C302.063572,121.688636 298.391664,120.770659 293.01806,120.770659 L273.135823,120.770659 L273.135823,155.698912 L255,155.698912 L255,66.4975285 L300.272389,66.4975285 C304.392152,66.4975285 308.131229,67.1468293 311.489732,68.4454503 C314.848234,69.7440713 317.736503,71.5352458 320.154625,73.8190276 C322.572747,76.1028094 324.431091,78.8343505 325.729712,82.013733 C327.028333,85.1931155 327.677633,88.6187368 327.677633,92.2906997 C327.677633,97.1269434 326.53576,101.403373 324.251978,105.120116 C321.968196,108.836858 318.676913,111.456451 314.378029,112.978972 C318.318673,114.232813 321.117383,116.158326 322.774244,118.755568 C324.431105,121.35281 325.259524,125.248615 325.259524,130.443099 L325.259524,155.698912 L306.989361,155.698912 Z M375.90549,116.203119 C375.81593,113.784997 375.390526,111.657977 374.629265,109.821996 C373.868005,107.986014 372.860469,106.463516 371.606628,105.254455 C370.352787,104.045394 368.919847,103.149807 367.307766,102.567666 C365.695685,101.985526 364.038848,101.69446 362.337207,101.69446 C358.844364,101.69446 355.821757,102.970672 353.269295,105.523134 C350.716833,108.075596 349.261504,111.635555 348.903264,116.203119 L375.90549,116.203119 Z M348.365906,127.218952 C348.634586,132.234316 350.089916,136.21968 352.731938,139.175162 C355.37396,142.130644 358.84436,143.608363 363.143244,143.608363 C366.009166,143.608363 368.5392,142.959062 370.733422,141.660441 C372.927643,140.36182 374.338193,138.548256 374.965114,136.219694 L392.966598,136.219694 C390.906716,143.02626 387.324367,148.265445 382.219443,151.937408 C377.114519,155.609371 371.024526,157.445325 363.94928,157.445325 C341.917503,157.445325 330.90178,145.444455 330.90178,121.442357 C330.90178,116.337433 331.61825,111.725158 333.051211,107.605395 C334.484172,103.485632 336.566412,99.9480621 339.297994,96.9925798 C342.029576,94.0370975 345.365639,91.7757397 349.306282,90.2084384 C353.246925,88.6411372 357.769641,87.8574984 362.874565,87.8574984 C373.084413,87.8574984 380.808853,91.1263919 386.048117,97.664277 C391.287381,104.202162 393.906974,114.053622 393.906974,127.218952 L348.365906,127.218952 Z M442.26917,155.698912 L442.26917,146.429491 C437.791166,153.773417 430.939924,157.445325 421.715236,157.445325 C418.401514,157.445325 415.378907,156.863193 412.647325,155.698912 C409.915743,154.534631 407.564826,152.877795 405.594505,150.728353 C403.624183,148.578911 402.079295,146.026488 400.959794,143.071005 C399.840293,140.115523 399.280551,136.80185 399.280551,133.129887 L399.280551,89.603911 L416.744677,89.603911 L416.744677,130.443099 C416.744677,138.682625 420.461365,142.802327 427.89485,142.802327 C432.372854,142.802327 435.753696,141.391777 438.037478,138.570634 C440.321259,135.749492 441.463133,132.144753 441.463133,127.75631 L441.463133,89.603911 L458.79292,89.603911 L458.79292,155.698912 L442.26917,155.698912 Z M497.079658,143.205345 C501.468102,143.205345 505.050451,141.347001 507.826813,137.630258 C510.603175,133.913515 511.991336,129.099734 511.991336,123.188769 C511.991336,109.575639 506.976047,102.769175 496.945319,102.769175 C487.183271,102.769175 482.302321,109.933874 482.302321,124.263485 C482.302321,129.905769 483.712871,134.473264 486.534013,137.966107 C489.355155,141.45895 492.870335,143.205345 497.079658,143.205345 Z M465.778571,155.698912 L465.778571,65.422813 L482.974018,65.422813 L482.974018,98.2016347 C487.899822,91.3055093 494.437609,87.8574984 502.587575,87.8574984 C506.886459,87.8574984 510.715094,88.6859166 514.073597,90.3427779 C517.432099,91.9996392 520.275589,94.3505557 522.604151,97.3955981 C524.932713,100.44064 526.701497,104.045379 527.910558,108.209922 C529.119619,112.374466 529.724141,116.96435 529.724141,121.979714 C529.724141,127.532439 529.007671,132.502948 527.57471,136.891391 C526.141749,141.279835 524.171457,144.996522 521.663775,148.041564 C519.156093,151.086607 516.133486,153.415134 512.595863,155.027215 C509.05824,156.639296 505.229605,157.445325 501.109841,157.445325 C492.870315,157.445325 486.735542,154.176431 482.705339,147.638546 L482.571,155.698912 L465.778571,155.698912 Z M579.026713,116.203119 C578.937153,113.784997 578.511749,111.657977 577.750488,109.821996 C576.989227,107.986014 575.981692,106.463516 574.727851,105.254455 C573.47401,104.045394 572.04107,103.149807 570.428989,102.567666 C568.816908,101.985526 567.160071,101.69446 565.45843,101.69446 C561.965587,101.69446 558.94298,102.970672 556.390518,105.523134 C553.838056,108.075596 552.382727,111.635555 552.024487,116.203119 L579.026713,116.203119 Z M551.487129,127.218952 C551.755809,132.234316 553.211138,136.21968 555.85316,139.175162 C558.495183,142.130644 561.965583,143.608363 566.264467,143.608363 C569.130389,143.608363 571.660423,142.959062 573.854644,141.660441 C576.048866,140.36182 577.459416,138.548256 578.086337,136.219694 L596.087821,136.219694 C594.027939,143.02626 590.44559,148.265445 585.340666,151.937408 C580.235742,155.609371 574.145749,157.445325 567.070503,157.445325 C545.038726,157.445325 534.023003,145.444455 534.023003,121.442357 C534.023003,116.337433 534.739472,111.725158 536.172433,107.605395 C537.605395,103.485632 539.687635,99.9480621 542.419217,96.9925798 C545.150799,94.0370975 548.486862,91.7757397 552.427505,90.2084384 C556.368148,88.6411372 560.890864,87.8574984 565.995788,87.8574984 C576.205636,87.8574984 583.930076,91.1263919 589.16934,97.664277 C594.408604,104.202162 597.028197,114.053622 597.028197,127.218952 L551.487129,127.218952 Z M644.718695,155.698912 L644.718695,115.665761 C644.718695,110.560837 643.867888,107.112826 642.166246,105.321625 C640.464605,103.530423 637.553946,102.634836 633.434183,102.634836 C624.388616,102.634836 619.8659,107.694904 619.8659,117.815192 L619.8659,155.698912 L602.401774,155.698912 L602.401774,89.603911 L619.059864,89.603911 L619.059864,99.2763502 C621.119745,95.5148272 623.851286,92.6713377 627.254569,90.7457962 C630.657852,88.8202547 635.046229,87.8574984 640.419834,87.8574984 C643.554436,87.8574984 646.465095,88.3276817 649.151897,89.2680624 C651.838699,90.2084431 654.144836,91.6189931 656.070378,93.4997546 C657.995919,95.380516 659.518417,97.6866532 660.637918,100.418235 C661.757419,103.149817 662.317161,106.306763 662.317161,109.889165 L662.317161,155.698912 L644.718695,155.698912 Z M720.217457,81.9465633 L720.217457,105.724643 L743.592518,105.724643 C748.607882,105.724643 752.145452,104.605159 754.205333,102.366157 C756.265215,100.127155 757.29514,97.3060555 757.29514,93.9027729 C757.29514,90.4099301 756.287605,87.5440509 754.272503,85.3050491 C752.257402,83.0660474 748.921339,81.9465633 744.264215,81.9465633 L720.217457,81.9465633 Z M754.070994,155.698912 L754.070994,132.726869 C754.070994,128.427986 753.085848,125.360599 751.115526,123.524618 C749.145205,121.688636 745.473297,120.770659 740.099693,120.770659 L720.217457,120.770659 L720.217457,155.698912 L702.081633,155.698912 L702.081633,66.4975285 L747.354022,66.4975285 C751.473786,66.4975285 755.212862,67.1468293 758.571365,68.4454503 C761.929868,69.7440713 764.818137,71.5352458 767.236258,73.8190276 C769.65438,76.1028094 771.512724,78.8343505 772.811345,82.013733 C774.109966,85.1931155 774.759267,88.6187368 774.759267,92.2906997 C774.759267,97.1269434 773.617393,101.403373 771.333611,105.120116 C769.049829,108.836858 765.758546,111.456451 761.459663,112.978972 C765.400306,114.232813 768.199016,116.158326 769.855877,118.755568 C771.512739,121.35281 772.341157,125.248615 772.341157,130.443099 L772.341157,155.698912 L754.070994,155.698912 Z M822.987123,116.203119 C822.897563,113.784997 822.472159,111.657977 821.710899,109.821996 C820.949638,107.986014 819.942102,106.463516 818.688261,105.254455 C817.43442,104.045394 816.001481,103.149807 814.389399,102.567666 C812.777318,101.985526 811.120482,101.69446 809.41884,101.69446 C805.925998,101.69446 802.903391,102.970672 800.350929,105.523134 C797.798467,108.075596 796.343137,111.635555 795.984897,116.203119 L822.987123,116.203119 Z M795.447539,127.218952 C795.71622,132.234316 797.171549,136.21968 799.813571,139.175162 C802.455593,142.130644 805.925994,143.608363 810.224877,143.608363 C813.090799,143.608363 815.620833,142.959062 817.815055,141.660441 C820.009277,140.36182 821.419827,138.548256 822.046747,136.219694 L840.048231,136.219694 C837.98835,143.02626 834.406001,148.265445 829.301077,151.937408 C824.196153,155.609371 818.106159,157.445325 811.030914,157.445325 C788.999136,157.445325 777.983413,145.444455 777.983413,121.442357 C777.983413,116.337433 778.699883,111.725158 780.132844,107.605395 C781.565805,103.485632 783.648046,99.9480621 786.379628,96.9925798 C789.11121,94.0370975 792.447272,91.7757397 796.387915,90.2084384 C800.328559,88.6411372 804.851274,87.8574984 809.956198,87.8574984 C820.166046,87.8574984 827.890486,91.1263919 833.12975,97.664277 C838.369014,104.202162 840.988607,114.053622 840.988607,127.218952 L795.447539,127.218952 Z M888.410427,146.966849 C887.156586,149.922331 884.895228,152.228468 881.626286,153.88533 C878.357343,155.542191 874.663046,156.370609 870.543283,156.370609 C867.05044,156.370609 863.826326,155.810867 860.870843,154.691366 C857.915361,153.571865 855.362937,151.959808 853.213496,149.855147 C851.064054,147.750485 849.384828,145.242841 848.175767,142.332138 C846.966706,139.421436 846.362185,136.130153 846.362185,132.45819 L846.362185,89.603911 L863.826311,89.603911 L863.826311,129.905741 C863.826311,138.145267 867.542998,142.264969 874.976484,142.264969 C879.006687,142.264969 882.253191,141.100705 884.716093,138.772144 C887.178995,136.443582 888.410427,133.488144 888.410427,129.905741 L888.410427,89.603911 L905.874553,89.603911 L905.874553,157.445325 C905.874553,162.102448 905.090915,166.266929 903.523613,169.938892 C901.956312,173.610855 899.806903,176.700631 897.075321,179.208313 C894.343738,181.715995 891.119624,183.641507 887.402881,184.984909 C883.686138,186.32831 879.723165,187 875.513842,187 C865.751794,187 858.452758,184.537135 853.616514,179.611331 C848.78027,174.685527 846.362185,167.923843 846.362185,159.326077 L862.617256,159.326077 C862.617256,163.26672 863.75913,166.356496 866.042911,168.595498 C868.326693,170.834499 871.752315,171.953983 876.319878,171.953983 C877.931959,171.953983 879.454458,171.618138 880.887419,170.946438 C882.32038,170.274737 883.596592,169.334371 884.716093,168.12531 C885.835594,166.916249 886.731181,165.41614 887.402881,163.624939 C888.074582,161.833737 888.410427,159.863445 888.410427,157.714004 L888.410427,146.966849 Z M956.38618,116.203119 C956.29662,113.784997 955.871216,111.657977 955.109956,109.821996 C954.348695,107.986014 953.341159,106.463516 952.087318,105.254455 C950.833477,104.045394 949.400538,103.149807 947.788457,102.567666 C946.176375,101.985526 944.519539,101.69446 942.817898,101.69446 C939.325055,101.69446 936.302448,102.970672 933.749986,105.523134 C931.197524,108.075596 929.742194,111.635555 929.383954,116.203119 L956.38618,116.203119 Z M928.846596,127.218952 C929.115277,132.234316 930.570606,136.21968 933.212628,139.175162 C935.85465,142.130644 939.325051,143.608363 943.623934,143.608363 C946.489856,143.608363 949.01989,142.959062 951.214112,141.660441 C953.408334,140.36182 954.818884,138.548256 955.445804,136.219694 L973.447288,136.219694 C971.387407,143.02626 967.805058,148.265445 962.700134,151.937408 C957.59521,155.609371 951.505216,157.445325 944.429971,157.445325 C922.398194,157.445325 911.38247,145.444455 911.38247,121.442357 C911.38247,116.337433 912.09894,111.725158 913.531901,107.605395 C914.964862,103.485632 917.047103,99.9480621 919.778685,96.9925798 C922.510267,94.0370975 925.846329,91.7757397 929.786973,90.2084384 C933.727616,88.6411372 938.250331,87.8574984 943.355255,87.8574984 C953.565103,87.8574984 961.289543,91.1263919 966.528807,97.664277 C971.768072,104.202162 974.387664,114.053622 974.387664,127.218952 L928.846596,127.218952 Z M1019.52571,109.620487 C1019.07791,106.575444 1017.93604,104.358866 1016.10006,102.970685 C1014.26408,101.582504 1011.46537,100.888423 1007.70384,100.888423 C1004.12144,100.888423 1001.41229,101.313827 999.576308,102.164648 C997.740327,103.015469 996.82235,104.470798 996.82235,106.53068 C996.82235,108.321881 997.740327,109.754821 999.576308,110.829541 C1001.41229,111.904262 1004.07666,112.934188 1007.5695,113.919348 C1013.30135,115.53143 1018.13752,116.8972 1022.07816,118.016701 C1026.01881,119.136202 1029.17575,120.457193 1031.54909,121.979714 C1033.92243,123.502236 1035.62405,125.405359 1036.65399,127.68914 C1037.68393,129.972922 1038.1989,133.040308 1038.1989,136.891391 C1038.1989,142.802356 1035.73603,147.705696 1030.81023,151.601559 C1025.88442,155.497422 1018.58539,157.445325 1008.9129,157.445325 C1004.16621,157.445325 999.867396,156.907972 996.016313,155.833252 C992.16523,154.758531 988.873947,153.213643 986.142365,151.198541 C983.410783,149.18344 981.306152,146.765354 979.828411,143.944212 C978.35067,141.123069 977.567031,137.966124 977.477471,134.473282 L995.478955,134.473282 C995.478955,137.607884 996.710388,140.02597 999.17329,141.727611 C1001.63619,143.429252 1004.83792,144.28006 1008.77856,144.28006 C1012.09228,144.28006 1014.93577,143.765098 1017.30911,142.735157 C1019.68246,141.705216 1020.86911,140.115549 1020.86911,137.966107 C1020.86911,135.547985 1019.99591,133.80159 1018.24949,132.726869 C1016.50307,131.652148 1013.8387,130.711782 1010.25629,129.905741 C1003.80797,128.47278 998.613562,126.972671 994.672919,125.40537 C990.732276,123.838069 987.664889,122.114063 985.470668,120.233302 C983.276446,118.35254 981.798727,116.29269 981.037466,114.053688 C980.276206,111.814686 979.895581,109.307042 979.895581,106.53068 C979.895581,104.022998 980.410544,101.649691 981.440485,99.4106896 C982.470425,97.1716879 984.104872,95.2013959 986.343874,93.4997546 C988.582876,91.7981132 991.493534,90.4323426 995.075937,89.4024018 C998.65834,88.372461 1003.04672,87.8574984 1008.2412,87.8574984 C1017.73457,87.8574984 1024.67537,89.783011 1029.06381,93.634094 C1033.45226,97.485177 1035.87034,102.813921 1036.31814,109.620487 L1019.52571,109.620487 Z" id="me" fill-opacity="0.7" fill="#FFFFFF"></path>
            </g>
        </g>
    </g>
</svg>